<?xml version="1.0" standalone="no"?>
<!DOCTYPE svg PUBLIC "-//W3C//DTD SVG 1.1//EN" "http://www.w3.org/Graphics/SVG/1.1/DTD/svg11.dtd" >
<svg xmlns="http://www.w3.org/2000/svg">
<metadata>
Created by FontForge 20120731 at Mon Jun 13 20:49:47 2016
 By admin
</metadata>
<defs>
<font id="jy" horiz-adv-x="1024" >
  <font-face 
    font-family="jy"
    font-weight="500"
    font-stretch="normal"
    units-per-em="1024"
    panose-1="2 0 6 3 0 0 0 0 0 0"
    ascent="896"
    descent="-128"
    x-height="792"
    bbox="0 -128.826 1040 896"
    underline-thickness="50"
    underline-position="-100"
    unicode-range="U+0078-E6F0"
  />
<missing-glyph horiz-adv-x="374" 
d="M34 0v682h272v-682h-272zM68 34h204v614h-204v-614z" />
    <glyph glyph-name=".notdef" horiz-adv-x="374" 
d="M34 0v682h272v-682h-272zM68 34h204v614h-204v-614z" />
    <glyph glyph-name=".null" horiz-adv-x="0" 
 />
    <glyph glyph-name="nonmarkingreturn" horiz-adv-x="341" 
 />
    <glyph glyph-name="x" unicode="x" horiz-adv-x="1001" 
d="M281 543q-27 -1 -53 -1h-83q-18 0 -36.5 -6t-32.5 -18.5t-23 -32t-9 -45.5v-76h912v41q0 16 -0.5 30t-0.5 18q0 13 -5 29t-17 29.5t-31.5 22.5t-49.5 9h-133v-97h-438v97zM955 310v-52q0 -23 0.5 -52t0.5 -58t-10.5 -47.5t-26 -30t-33 -16t-31.5 -4.5q-14 -1 -29.5 -0.5
t-29.5 0.5h-32l-45 128h-439l-44 -128h-29h-34q-20 0 -45 1q-25 0 -41 9.5t-25.5 23t-13.5 29.5t-4 30v167h911zM163 247q-12 0 -21 -8.5t-9 -21.5t9 -21.5t21 -8.5q13 0 22 8.5t9 21.5t-9 21.5t-22 8.5zM316 123q-8 -26 -14 -48q-5 -19 -10.5 -37t-7.5 -25t-3 -15t1 -14.5
t9.5 -10.5t21.5 -4h37h67h81h80h64h36q23 0 34 12t2 38q-5 13 -9.5 30.5t-9.5 34.5q-5 19 -11 39h-368zM336 498v228q0 11 2.5 23t10 21.5t20.5 15.5t34 6h188q31 0 51.5 -14.5t20.5 -52.5v-227h-327z" />
    <glyph glyph-name="uniE600" unicode="&#xe600;" 
d="M890 643q0 14 -10 23.5t-24.5 9.5t-24.5 -9.5t-10 -23.5v-643h69v643zM167.5 447q-14.5 0 -24.5 -10t-10 -24v-413h69v413q0 14 -10 24t-24.5 10zM397 768q-14 0 -24 -10t-11 -24v-734h69v734q0 14 -10 24t-24 10zM626 562q-14 0 -24 -10t-10 -24v-528h69v528
q-1 14 -11 24t-24 10z" />
    <glyph glyph-name="uniE601" unicode="&#xe601;" 
d="M705 581l-303 175l-5 2q-3 2 -12 4t-17 1t-18 -7.5t-18 -19.5l-314 -543q-1 -2 -3 -5t-4.5 -12t-2 -17t6.5 -18t19 -17l307 -178l5 -2q3 -2 11.5 -4t16.5 -1t17.5 7.5t16.5 18.5l315 546q2 1 3.5 4.5t3.5 12.5t1.5 17t-7 18.5t-19.5 17.5zM497 672l87 -50l-12 -22l-87 50
zM464.5 691q10.5 -6 4.5 -17t-17 -5t-4.5 17t17 5zM213 79q-9 5 -12 15t2.5 19t15.5 12t19 -2.5t11.5 -15.5t-2.5 -19t-15 -11.5t-19 2.5zM417 78l-307 177l252 437l307 -177zM776 689l-26 -45q46 -26 59.5 -76.5t-12.5 -96.5l44 -26q37 64 18 136q-19 71 -83 108zM1007 619
q-18 64 -57.5 116t-96.5 85l-26 -44q100 -58 130 -170q29 -112 -28 -212l44 -25q69 118 34 250z" />
    <glyph glyph-name="uniE602" unicode="&#xe602;" 
d="M907 550q-11 3 -26.5 5t-44 3t-48 1.5t-66 1.5t-70.5 2q8 34 8 98q0 79 -47 141t-101 62q-37 0 -63.5 -26t-26.5 -63q0 -27 -5 -53.5t-17 -58t-37 -59.5t-61 -47l-32 -16l2 -1q-28 24 -60 24h-90q-37 0 -63.5 -26.5t-26.5 -63.5v-480q0 -37 26.5 -63.5t63.5 -26.5h90
q26 0 47.5 14t32.5 38l1 -1q1 0 3.5 -0.5t4.5 -0.5q0 -1 1 -1q31 -7 122 -28q93 -21 179 -21h164q75 0 107 58q7 12 13 32q8 25 1 53q32 22 49 77q15 46 0 82q32 30 40 83q6 38 -11 71q24 27 25 65l1 7v15q0 31 -22 61t-63 42zM242 -6q0 -13 -9 -21.5t-21 -8.5h-90
q-12 0 -21 9t-9 21v480q0 12 9 21t21 9h90q12 0 21 -9t9 -21v-480zM931 428q-2 -44 -59 -44h-60q-6 0 -10.5 -4.5t-4.5 -10.5t4.5 -10.5t10.5 -4.5h58q30 0 40.5 -18.5t7.5 -36.5q-11 -65 -65 -65h-71q-6 0 -10.5 -4.5t-4.5 -10.5t4.5 -10.5t10.5 -4.5h59q23 0 34 -11
t9.5 -24.5t-4.5 -26.5q-5 -17 -8 -22.5t-11 -16.5t-22.5 -15t-37.5 -4h-49q-6 0 -10.5 -4.5t-4.5 -10.5t4.5 -10.5t10.5 -4.5h47q21 0 27.5 -15t3.5 -27q-4 -12 -9 -22q-14 -26 -54 -26h-164q-85 0 -166 19q-115 27 -140 33q-2 1 -6.5 2t-11.5 8t-7 17v414q0 24 24 31
q1 1 3 1.5t3 1.5q49 20 85 53t56 72t29 78t10 80q0 12 8.5 21t21.5 9q27 0 57.5 -44t30.5 -99q0 -52 -4.5 -76t-23.5 -81q142 0 212 -1.5t82 -3.5t30 -6q36 -10 36 -46q0 -4 -1 -19zM167 84q-19 0 -32 -13t-13 -32t13 -32t32 -13t32 13t13 32t-13 32t-32 13zM167 24
q-6 0 -10.5 4.5t-4.5 10.5t4.5 10.5t10.5 4.5t10.5 -4.5t4.5 -10.5t-4.5 -10.5t-10.5 -4.5zM167 24z" />
    <glyph glyph-name="uniE603" unicode="&#xe603;" 
d="M512 190q79 0 135.5 56.5t56.5 135.5v256q0 79 -56.5 135.5t-135.5 56.5t-135.5 -56.5t-56.5 -135.5v-256q0 -79 56.5 -135.5t135.5 -56.5zM864 416v128q0 13 -9.5 22.5t-22.5 9.5t-22.5 -9.5t-9.5 -22.5v-128q0 -120 -84.5 -205t-203.5 -85t-203.5 85t-84.5 205v128
q0 13 -9.5 22.5t-22.5 9.5t-22.5 -9.5t-9.5 -22.5v-128q0 -138 92.5 -239t227.5 -114v-63h-192q-13 0 -22.5 -9.5t-9.5 -22.5t9.5 -22.5t22.5 -9.5h448q13 0 22.5 9.5t9.5 22.5t-9.5 22.5t-22.5 9.5h-192v63q135 13 227.5 114t92.5 239z" />
    <glyph glyph-name="uniE604" unicode="&#xe604;" horiz-adv-x="1048" 
d="M360 96l456 257l35 23l-36 22l-455 258v-71v-443v-46zM415 560l319 -185l-319 -186v371zM524 896q-104 0 -199 -40.5t-163.5 -109t-109 -163.5t-40.5 -199q0 -167 98 -302l39 41q-82 117 -82 261q0 93 36.5 177.5t97.5 146t145.5 97.5t177.5 36t178 -36t146 -97.5
t97 -146t36 -177.5t-36 -177.5t-97 -146t-146 -97.5t-178 -36q-142 0 -259 80l-34 -42q132 -93 293 -93q104 0 199 40.5t163.5 109t109 163.5t40.5 199t-40.5 199t-109 163.5t-163.5 109t-199 40.5z" />
    <glyph glyph-name="uniE605" unicode="&#xe605;" horiz-adv-x="1048" 
d="M524 896q-104 0 -199 -40.5t-163.5 -109t-109 -163.5t-40.5 -199q0 -167 98 -302l39 41q-82 117 -82 261q0 93 36.5 177.5t97.5 146t145.5 97.5t177.5 36t178 -36t146 -97.5t97 -146t36 -177.5t-36 -177.5t-97 -146t-146 -97.5t-178 -36q-142 0 -259 80l-34 -42
q132 -93 293 -93q104 0 199 40.5t163.5 109t109 163.5t40.5 199t-40.5 199t-109 163.5t-163.5 109t-199 40.5zM616 640v-512h55v512h-55zM378 640v-512h55v512h-55z" />
    <glyph glyph-name="uniE606" unicode="&#xe606;" 
d="M846 473q-13 -4 -19.5 -16.5t-2.5 -25.5q19 -55 19 -114q0 -101 -51.5 -187t-140 -136t-192.5 -50t-192.5 50t-140 136t-51.5 187t51.5 187.5t140 136.5t192.5 50q52 0 102 -14q13 -3 25 3.5t15.5 20t-3 25.5t-20.5 15q-58 16 -119 16q-92 0 -175 -35t-143.5 -94
t-96 -140.5t-35.5 -170.5t35.5 -170.5t96 -140.5t143.5 -94t174.5 -35t175 35t144 94t96 140.5t35.5 170.5q0 69 -21 135q-5 13 -17 19t-25 2zM944 794q-23 25 -50.5 44.5t-49.5 29t-44.5 16.5t-31 8.5t-13.5 1.5q-13 1 -23.5 -6.5t-12.5 -20.5l-21 -118q-2 -14 6 -25
t21.5 -13.5t25 5.5t13.5 21l15 85q68 -21 116 -73q25 -28 38 -79t10 -98q-27 24 -61 43t-60.5 29t-55 17t-39.5 8.5t-18 2.5q-13 2 -23.5 -6t-12.5 -21l-48 -264q-2 4 -5 7q-64 65 -167 71q-96 6 -169.5 -44t-80.5 -126q-6 -66 40 -120q30 -35 76.5 -56t100.5 -24
q6 -1 12 -1q59 0 117 31.5t92 83.5q26 38 33 71l59 327q139 -30 201 -117q11 -15 30 -13.5t27 18.5q18 37 19.5 94t-16 116t-50.5 95zM608 286q-4 -19 -22 -47q-26 -39 -72 -63t-90 -21q-40 2 -74.5 17.5t-56.5 39.5q-27 33 -24 70q5 47 53.5 79t113.5 32h13q77 -5 124 -51
q9 -10 22 -10.5t23 7.5z" />
    <glyph glyph-name="uniE607" unicode="&#xe607;" 
d="M901 516l-263 256q-28 27 -71.5 27t-71.5 -27l-327 -320q-44 -42 -57 -69.5t-13 -81.5v-144q0 -53 6.5 -86t26.5 -58.5t57 -36.5t96 -11h132q30 0 54.5 7.5t50 25.5t42 32.5t47.5 46.5l290 297q30 29 30 72q0 42 -29 70zM323 109q-40 0 -68 28.5t-28 68t28 67.5t68 28
t68 -28t28 -67.5t-28 -68t-68 -28.5z" />
    <glyph glyph-name="uniE608" unicode="&#xe608;" 
d="M377 236q-1 0 -2 1l-2 2q0 -1 -0.5 -2t-1.5 -1h6zM652 343l-112 111l-10 10q-8 6 -18 6t-18 -6l-10 -10l-112 -111q-9 -9 -9 -22t9.5 -22t22 -9t21.5 9l65 64v-346q0 -13 9 -22t22 -9t22 9.5t9 21.5v346l65 -64q9 -9 21.5 -9t22 9t9.5 22t-9 22zM553 671q-5 1 -7 1
q-10 0 -16.5 -7t-6.5 -16q0 -7 3.5 -12.5t7.5 -7.5l4 -2q1 0 3 -0.5t3 -0.5h1h1h1q54 -6 90 -40q12 -9 20 -9q9 0 16 7t7 16q0 4 -3 9.5t-6 8.5l-3 3q-48 42 -115 50zM729.5 534q-0.5 1 -0.5 2l-7 14q-13 18 -24 18q-10 0 -17 -6.5t-7 -16.5l2 -10q8 -13 10 -18
q1 -1 2.5 -3.5t1.5 -3.5q1 -1 3 -2.5t6.5 -3.5t8.5 -1q10 0 16.5 6.5t6.5 16.5v6q-1 1 -1.5 2zM844 537q-28 107 -115.5 176t-200.5 69q-111 0 -198 -66.5t-117 -170.5q-79 -12 -132 -73t-53 -143q0 -81 54 -142t134 -73h140q13 0 22 9t9 22t-9 22t-22 9h-140
q-54 11 -89.5 54t-35.5 99q0 65 45.5 110.5t110.5 45.5q8 0 17 -1q12 100 87 167.5t176.5 67.5t176.5 -67.5t87 -166.5q60 -5 101 -50t41 -106q0 -56 -35.5 -99t-89.5 -54h-140q-13 0 -22 -9t-9 -22t9 -22t22 -9h156q74 16 123 77t49 138q0 72 -42.5 129.5t-109.5 78.5z" />
    <glyph glyph-name="uniE609" unicode="&#xe609;" 
d="M512 832q-146 0 -249 -103t-103 -249q0 -53 34 -127.5t76.5 -136.5t98 -130.5t80 -95.5t40.5 -44q9 -10 23 -10h1q14 0 23 11l109 125q219 268 219 408q0 146 -103 249t-249 103zM512 320q-66 0 -113 47t-47 113t47 113t113 47t113 -47t47 -113t-47 -113t-113 -47z" />
    <glyph glyph-name="uniE60A" unicode="&#xe60a;" 
d="M752 891q48 0 92.5 -18t79 -49.5t55.5 -73.5t21 -90v-148h-121v120q0 63 -35.5 98t-95.5 35q-54 0 -87 -35t-33 -98v-122h-126v150q0 48 19 90t52.5 73.5t79 49.5t99.5 18zM750 209v-133q0 -27 -9.5 -51t-26 -41t-39 -27t-49.5 -10h-506q-27 0 -49 9.5t-38 26t-24.5 38.5
t-8.5 47v318q0 28 19.5 47t45.5 19h619q28 0 47 -19t19 -47v-177z" />
    <glyph glyph-name="uniE60B" unicode="&#xe60b;" 
d="M512 830q-91 0 -173.5 -35.5t-142 -95t-95 -142t-35.5 -173.5t35.5 -173.5t95 -142t142 -95t173.5 -35.5t173.5 35.5t142 95t95 142t35.5 173.5t-35.5 173.5t-95 142t-142 95t-173.5 35.5zM512 224q-66 0 -113 47t-47 113t47 113t113 47t113 -47t47 -113t-47 -113
t-113 -47z" />
    <glyph glyph-name="uniE60C" unicode="&#xe60c;" 
d="M758.5 -54.5q9.5 9.5 10 22.5t-7.5 22l-377 376q-12 12 -12 18t12 18l377 376q8 9 7.5 22t-10 22t-22.5 9.5t-22 -7.5l-418 -419q-7 -7 -8 -18v-6q1 -11 8 -18l418 -419q9 -8 22 -8t22.5 9.5z" />
    <glyph glyph-name="uniE60D" unicode="&#xe60d;" 
d="M746 -68q-16 0 -25 15q-7 11 -4 23t14 19q93 58 146 154.5t53 208.5q0 115 -56 213t-152.5 155.5t-210 57.5t-210 -57.5t-152.5 -155.5t-56 -213q0 -111 52 -207t145 -154q10 -7 13 -19.5t-4 -23t-19 -13.5t-22 4q-106 67 -165.5 176.5t-59.5 236.5q0 99 38 189t102 155
t152.5 104t186 39t186 -39t152.5 -104t102 -155t38 -189q0 -128 -60.5 -238t-167.5 -177q-7 -5 -16 -5zM951 321h-55q-12 0 -21 9t-9 21.5t9 21.5t21 9h55q12 0 21 -9t9 -21.5t-9 -21.5t-21 -9zM128 322h-55q-12 0 -21 9t-9 21.5t9 21.5t21 9h55q12 0 21 -9t9 -21.5
t-9 -21.5t-21 -9zM511 708q-12 0 -21 9t-9 21v56q0 13 9 22t21 9t21 -9t9 -22v-56q0 -12 -9 -21t-21 -9zM321 660q-17 0 -26 16l-27 48q-6 11 -3 23t14 18.5t23 3t18 -14.5l27 -48q6 -11 3 -23t-14 -19q-7 -4 -15 -4zM892 100q-8 0 -15 4l-48 28q-10 6 -13.5 18t3 23
t18.5 14.5t22 -2.5l48 -28q11 -7 14 -19t-3 -23q-9 -15 -26 -15zM181 518q-8 0 -15 4l-47 27q-11 7 -14 19t3 23t18 14.5t23 -3.5l47 -28q11 -6 14 -18t-3 -23q-9 -15 -26 -15zM134 100q-17 0 -26 15q-6 11 -3 23t14 19l47 28q11 6 23 2.5t18 -14.5t3 -23t-14 -18l-47 -28
q-7 -4 -15 -4zM845 518q-18 0 -26 15q-7 11 -3.5 23t14.5 18l47 28q11 7 23 3.5t18 -14.5t3 -23t-14 -19l-48 -27q-6 -4 -14 -4zM704 660q-8 0 -15 4q-10 7 -13.5 19t2.5 23l28 48q6 11 18 14.5t22.5 -3t14 -18.5t-2.5 -23l-28 -48q-8 -16 -26 -16zM451 351q0 -25 17.5 -43
t42 -18t42 18t17.5 43t-17.5 43t-42 18t-42 -18t-17.5 -43zM743.5 488q6.5 -11 3 -23t-14.5 -18l-207 -122q-11 -7 -23 -3.5t-18 14.5t-3 23t14 19l208 121q10 7 22 3.5t18.5 -14.5z" />
    <glyph glyph-name="uniE60E" unicode="&#xe60e;" 
d="M512 -63q-91 0 -174 35.5t-143 95t-95.5 142.5t-35.5 174t35.5 174t95.5 143t143 95.5t174 35.5q83 0 161 -30l-16 -54q-70 28 -145 28q-107 0 -197 -52.5t-142.5 -142.5t-52.5 -196.5t52.5 -196.5t142.5 -142.5t196.5 -52.5t196.5 52.5t142.5 142.5t52.5 196
q0 73 -27 143l54 15q29 -76 29 -158q0 -91 -35.5 -174t-95.5 -142.5t-142.5 -95t-173.5 -35.5zM358 230l70 126l56 -56zM525 353q-9 -10 -19 0l-26 25q-10 10 0 20l396 395q9 10 19 0l26 -25q10 -10 0 -20z" />
    <glyph glyph-name="uniE60F" unicode="&#xe60f;" 
d="M821 596l-143 143l72 72q17 17 42.5 17t42.5 -17l58 -58q18 -17 18 -42.5t-18 -43.5zM405 180l-143 143l389 386l143 -143zM147 62l87 233l142 -142zM790 13q15 0 25.5 -10.5t10.5 -25.5t-10.5 -25.5t-25.5 -10.5h-642q-15 0 -25.5 10.5t-10.5 25.5t10.5 25.5t25.5 10.5
h642z" />
    <glyph glyph-name="uniE610" unicode="&#xe610;" 
d="M395 476h-121v142q0 46 18.5 86t50.5 70t76 47.5t96 17.5q46 0 88.5 -17.5t76 -47.5t53 -70t19.5 -86v-142h-116v115q0 61 -33.5 94t-91.5 33q-52 0 -84 -33t-32 -94v-115zM810 419q26 0 44.5 -19t18.5 -45v-298q0 -26 -9 -48.5t-25 -39.5t-37.5 -26.5t-47.5 -9.5h-486
q-26 0 -47 9.5t-36 25.5t-23 37t-8 45v305q0 26 18.5 45t43.5 19h594z" />
    <glyph glyph-name="uniE611" unicode="&#xe611;" 
d="M927 153q70 116 70 252q0 99 -38 189t-103 155t-155 103.5t-189 38.5t-189 -38.5t-155 -103.5t-103 -155t-38 -189q0 -129 63 -241q7 -11 20 -14.5t24.5 3t15 19.5t-2.5 25q-56 96 -56 208q0 115 56.5 211.5t153.5 153t211 56.5t211 -56.5t153.5 -153t56.5 -211.5
q0 -118 -61 -218q-7 -12 -4 -25t14.5 -20t24.5 -3.5t20 14.5zM761 268q42 70 42 152q0 120 -85 205.5t-206 85.5t-206 -85.5t-85 -205.5q0 -78 38 -145q7 -12 20 -15.5t24.5 3.5t15 20t-3.5 24q-30 52 -30 113q0 93 66.5 159.5t160.5 66.5t160.5 -66.5t66.5 -159.5
q0 -64 -33 -118q-7 -12 -4 -25t14.5 -20t24.5 -3.5t20 14.5zM447 -80q40 0 68.5 23.5t28.5 57t-28.5 57.5t-68.5 24t-68.5 -24t-28.5 -57.5t28.5 -57t68.5 -23.5zM440 134q-63 0 -108.5 -37t-45.5 -91t45.5 -91t109 -37t109 37t45.5 91t-45.5 91t-109.5 37zM440 69
q38 0 64 -19t26 -44t-26 -44t-63.5 -19t-63.5 19t-26 44t26 44t63 19zM595 26l10 361q1 13 -8.5 23t-23 10t-23 -9t-9.5 -22l-11 -361q0 -14 9 -23.5t22.5 -10t23 9t10.5 22.5zM655 444q-24 -3 -45 -9q-6 -2 -22 -7t-17 -5q-13 -4 -20 -15t-4 -24t14.5 -20t24.5 -4
q4 1 21 6.5t20 5.5q17 5 37 8q13 2 21 13t6 24t-12.5 21t-23.5 6z" />
    <glyph glyph-name="uniE612" unicode="&#xe612;" 
d="M268 -18q-21 -3 -27 2q-10 7 -11 40t9 83q6 34 17 73q8 30 18 60q5 15 8 23q8 22 -11 35l-9 6q-11 8 -23 17q-39 29 -71 57t-54 52q-47 52 -41 70q3 12 38.5 23t89.5 17q69 8 146 7h5q10 0 18 6t11 15q1 4 4 11q4 15 9 30q17 50 36 92q23 53 46 85.5t36 32.5t36 -32.5
t46 -85.5q19 -42 36 -92q5 -15 9 -30q3 -7 4 -11q3 -10 11 -15.5t18 -5.5h8q76 2 143 -6q54 -6 89 -17.5t39 -23.5q6 -18 -39 -69q-22 -24 -56 -53q-32 -28 -71 -57q-12 -9 -23 -17l-9 -6q-19 -13 -11 -34l8 -24q9 -31 18 -61q10 -38 16 -71q9 -51 9 -84.5t-10 -39.5
q-6 -5 -29 0q-12 3 -22 -4t-13 -18.5t3.5 -22t18.5 -13.5q49 -11 77 9.5t33 68t-9 115.5q-7 35 -17 75q-9 32 -19 64q-5 16 -9 25l-11 -34q4 3 10 7q12 8 24 18q41 30 75 59q36 31 61 59q68 75 51 126q-11 35 -55 54t-123 28q-70 8 -151 6h-8l30 -21q-2 4 -4 12
q-5 15 -11 32q-17 52 -36 95q-34 77 -66.5 115.5t-70.5 38.5t-70.5 -38.5t-66.5 -115.5q-19 -43 -37 -95q-5 -17 -10 -32q-2 -8 -4 -12l30 21h-6q-81 1 -153 -7q-79 -9 -123 -27.5t-55 -53.5q-17 -51 54 -128q24 -26 58 -56t75 -60q12 -10 24 -18q6 -4 10 -7l-11 35
q-4 -10 -9 -26q-11 -31 -19 -63q-12 -41 -18 -76q-28 -145 25 -183q27 -20 72 -12q12 3 19 13t5 22t-12 19t-22 5v-1zM512 -71q38 0 64.5 22t26.5 53.5t-26.5 54t-64.5 22.5t-64.5 -22.5t-26.5 -54t26.5 -53.5t64.5 -22zM506 129q-60 0 -102.5 -34.5t-42.5 -85t42.5 -85
t102 -34.5t102 34.5t42.5 85t-42.5 85t-101.5 34.5zM506 69q35 0 59 -18t24 -41.5t-24 -41.5t-59.5 -18t-59.5 18t-24 41.5t24 41.5t60 18zM650 28l10 338q0 13 -8.5 22t-21 9.5t-21.5 -8t-10 -21.5l-10 -338q0 -12 8.5 -21.5t21 -9.5t22 8.5t9.5 20.5zM706 420
q-22 -3 -41 -8q-6 -2 -21 -6.5t-16 -5.5q-12 -3 -18.5 -13.5t-4 -23t13.5 -19t23 -3.5q4 1 19.5 6t19.5 6q16 5 34 7q13 2 20.5 12t5.5 22.5t-12 20t-23 5.5z" />
    <glyph glyph-name="uniE613" unicode="&#xe613;" 
d="M902 399h-2q-6 -178 -81.5 -259t-216.5 -81h-60v-93h90q12 0 21 -9t9 -22t-9 -22t-21 -9h-240q-12 0 -21 9t-9 22t9 22t21 9h90v93h-60q-141 0 -216.5 80t-81.5 260h-2q-12 0 -21 9.5t-9 22t9 21.5t21 9h60q12 0 21 -9t9 -21.5t-9 -22t-21 -9.5q0 -30 4.5 -61.5t19.5 -72
t40 -71t70.5 -52t105.5 -21.5h180q60 0 105 18.5t70 46t40.5 67t20 74t4.5 72.5q-12 0 -21 9.5t-9 22t9 21.5t21 9h60q12 0 21 -9t9 -21.5t-9 -22t-21 -9.5zM572 183h-120q-75 0 -127.5 54.5t-52.5 131.5v309q0 77 52.5 131.5t127.5 54.5h120q75 0 127.5 -54.5t52.5 -131.5
v-309q0 -77 -52.5 -131.5t-127.5 -54.5zM692 663q0 57 -39.5 98t-95.5 41h-90q-56 0 -95.5 -41t-39.5 -98v-279q0 -58 39.5 -98.5t95.5 -40.5h90q56 0 95.5 40.5t39.5 98.5v279zM602 369h-180q-12 0 -21 9t-9 21.5t9 21.5t21 9h180q12 0 21 -9t9 -21.5t-9 -21.5t-21 -9z
M602 492h-180q-12 0 -21 9.5t-9 22t9 21.5t21 9h180q12 0 21 -9t9 -21.5t-9 -22t-21 -9.5zM602 616h-180q-12 0 -21 9t-9 22t9 22t21 9h180q12 0 21 -9t9 -22t-9 -22t-21 -9z" />
    <glyph glyph-name="uniE614" unicode="&#xe614;" 
d="M864 77h-214v-123h61q13 0 22 -9t9 -21.5t-9 -21.5t-22 -9h-368q-13 0 -22 9t-9 21.5t9 21.5t22 9h61v123h-246q-50 0 -86 36t-36 87v552q0 51 36 87t86 36h706q51 0 87 -36t36 -87v-552q0 -51 -36 -87t-87 -36zM588 -46v123h-123v-123h123zM926 752q0 26 -18 44t-44 18
h-706q-25 0 -43 -18t-18 -44v-429h829v429zM926 261h-829v-61q0 -26 18 -44t43 -18h706q26 0 44 18t18 44v61z" />
    <glyph glyph-name="uniE615" unicode="&#xe615;" 
d="M932 440l-180 -112q0 51 -42 84q47 27 74.5 71t27.5 96q0 81 -61.5 138t-148.5 57t-148.5 -56t-61.5 -137q0 -16 2.5 -28.5t9.5 -26.5t12 -22.5t18.5 -28t20.5 -31.5h-110q20 0 33.5 36.5t13.5 72.5q0 69 -52.5 117.5t-127.5 48.5t-127.5 -49t-52.5 -118q0 -76 62 -126
q-28 -15 -45 -41t-17 -57v-223q0 -49 36.5 -95t83.5 -46h480q47 0 83.5 46t36.5 95v28l180 -139q25 0 42.5 16.5t17.5 39.5v334q0 23 -17.5 39.5t-42.5 16.5zM92 551q0 46 35 79t85 33t85 -33t35 -79t-35 -78.5t-85 -32.5t-85 32.5t-35 78.5zM692 105q0 -25 -18.5 -53
t-41.5 -28h-480q-23 0 -41.5 28t-18.5 53v223q0 23 17.5 39.5t42.5 16.5h480q25 0 42.5 -16.5t17.5 -39.5v-223zM602 439q-62 0 -106 41t-44 99t44 99t106 41t106 -41t44 -99t-44 -99t-106 -41zM932 50l-180 139v84l180 111v-334z" />
    <glyph glyph-name="uniE616" unicode="&#xe616;" 
d="M518 453l-30 44q5 7 10 13q30 41 67 69.5t72 43t73.5 21t70 5.5t64.5 -7l-77 78q-10 10 0 19l19 20q10 9 19 0l147 -148l7 -3v-9v-47q-71 28 -133.5 35.5t-107.5 -0.5t-85 -30t-66 -47t-50 -57zM958 216v-47v-9l-6 -3l-147 -146q-9 -10 -19 0l-19 19q-10 10 0 19l77 77
q-33 -5 -64.5 -6t-70 5.5t-73.5 21t-71.5 43t-67.5 68.5q-28 37 -59 81t-49 70t-41 56t-41 46.5t-43 34t-52.5 26t-64 14t-83.5 6.5v56q4 1 12 2.5t33 1.5t51 -4.5t63.5 -20t73.5 -40.5t78.5 -70.5t79.5 -105.5q4 -6 13 -20q14 -24 22.5 -38t28 -40t35 -41.5t41.5 -36
t51 -31t60 -19.5t72 -8t83.5 10t96.5 29zM359 315l33 -48q-47 -55 -97.5 -90t-90 -47t-72.5 -15.5t-50 -0.5t-18 4v56q81 1 134.5 17.5t87.5 44t73 79.5z" />
    <glyph glyph-name="uniE617" unicode="&#xe617;" 
d="M549 739q-15 -10 -37 -10t-37 10l-174 114q-15 10 -31.5 5.5t-25.5 -20.5l-41 -84q-8 -16 -1 -27.5t26 -11.5h572q18 0 25 11.5t-1 27.5l-44 84q-8 16 -25 20.5t-32 -5.5zM904 -29v517q0 8 -5 13.5t-13 5.5h-343v-575h322q19 0 29 12.5t10 26.5zM162 -68h316v575h-339
q-8 0 -13 -5.5t-5 -13.5v-258v-259q0 -19 12.5 -29t28.5 -10zM43 672v-124q0 -8 5.5 -14t13.5 -6h416v164h-416q-9 0 -14 -5.5t-5 -14.5zM961 692h-418v-164h420q7 0 13 6t6 14v124q0 7 -5 13.5t-16 6.5z" />
    <glyph glyph-name="uniE618" unicode="&#xe618;" 
d="M264 -61h-18q-44 0 -75.5 31t-31.5 75v273q0 43 31.5 74.5t75.5 31.5h18q44 0 75 -31.5t31 -74.5v-273q0 -44 -31 -75t-75 -31zM779 -63h-18q-44 0 -75 31.5t-31 75.5v273q0 43 31 74.5t75 31.5h18q44 0 75.5 -31.5t31.5 -74.5v-273q0 -44 -31.5 -75.5t-75.5 -31.5z
M98 169v185q0 112 53.5 208.5t146.5 154.5t204 61q87 2 165.5 -30.5t135 -89t90 -135t33.5 -164.5v-190q0 -11 8 -19.5t20 -8.5t20 8.5t8 19.5v187q0 97 -38 186.5t-102 154.5t-153 103t-186 37q-94 -2 -179.5 -40t-147 -100.5t-98 -149t-36.5 -180.5v-198q0 -11 8.5 -19.5
t19.5 -8.5q12 0 20 8.5t8 19.5z" />
    <glyph glyph-name="uniE619" unicode="&#xe619;" 
d="M784 -61h-22q-43 0 -73.5 30.5t-30.5 73.5v276q0 43 30.5 73.5t73.5 30.5h22q43 0 73.5 -30.5t30.5 -73.5v-276q0 -43 -30.5 -73.5t-73.5 -30.5zM957 769l-843 -843q-9 -9 -21 -9t-21 9q-8 8 -8 20.5t8 20.5l844 844q8 8 20.5 8t20.5 -8q9 -9 9 -21t-9 -21zM250 -61h18
q44 0 75 31t31 75v113l-194 -194q33 -25 70 -25zM374 317q0 44 -31.5 75t-74.5 31h-18q-44 0 -75.5 -31t-31.5 -75v-244q0 -2 1 -6l230 227v23zM876 662l-39 -40q92 -116 92 -263v-190q0 -11 8 -19.5t20 -8.5q11 0 19.5 8.5t8.5 19.5v187q0 167 -109 306zM506 837
q-94 -2 -179.5 -40t-147.5 -100.5t-98 -149t-36 -180.5v-198q0 -11 8 -19.5t20 -8.5t20 8.5t8 19.5v185q0 112 54.5 209t147.5 155t202 60q78 1 137 -19.5t125 -66.5l42 38q-74 56 -145 82.5t-158 24.5z" />
    <glyph glyph-name="uniE61A" unicode="&#xe61a;" 
d="M978 859q-7 5 -16 5t-17 -5l-900 -600q-15 -10 -13 -28t19 -25l235 -94l110 -193q8 -15 26 -15q17 0 26 15l62 103l291 -116q5 -2 11 -2q8 0 15 4q12 7 15 21l150 900q3 19 -14 30zM126 241l695 463l-505 -541l-3 2q-3 2 -5 3zM338 142h-1l569 609l-485 -755zM789 -24
l-257 102q-7 3 -18 4l394 611z" />
    <glyph glyph-name="uniE61B" unicode="&#xe61b;" 
d="M654 299q13 0 23 10t10 23.5t-10 23.5t-23 10h-44l53 108q5 10 0 21.5t-16.5 18.5t-23.5 5.5t-17 -10.5l-68 -141v-2h-1h-18v2q0 1 -1 1l-67 135q-5 9 -16.5 10.5t-23.5 -5.5t-16.5 -18t0.5 -20l52 -105h-52q-14 0 -24 -10t-10 -23.5t10 -23.5t24 -10h96v-44h-96
q-14 0 -24 -9.5t-10 -23.5t10 -23.5t24 -9.5h96v-97q0 -14 9.5 -23.5t23.5 -9.5t23.5 9.5t9.5 23.5v97h97q13 0 23 9.5t10 23.5t-10 23.5t-23 9.5h-97v44h97zM958 52v0q0 11 -8 19t-19 8t-19 -8t-8 -19v-4v-43q0 -12 -8 -20t-19 -8h-733q-11 0 -19 8t-8 20v758l372 -173
l35 -15l35 15l345 160v-451v-4q0 -11 8 -19t19 -8t19 7.5t8 19.5v0v469q0 9 -1 17q-3 11 -8 21q-3 6 -8 13q-24 31 -64 31h-733q-34 0 -57.5 -24t-23.5 -58v-759q0 -34 23.5 -58t57.5 -24h733q34 0 57.5 24t23.5 58v47v0zM858 792l-334 -156l-334 156h668z" />
    <glyph glyph-name="uniE61C" unicode="&#xe61c;" 
d="M166.5 503q-47.5 0 -81.5 -33.5t-34 -81t34 -81t81.5 -33.5t81 33.5t33.5 81t-33.5 81t-81 33.5zM510.5 503q-47.5 0 -81 -33.5t-33.5 -81t33.5 -81t81 -33.5t81 33.5t33.5 81t-33.5 81t-81 33.5zM855.5 503q-47.5 0 -81.5 -33.5t-34 -81t34 -81t81.5 -33.5t81 33.5
t33.5 81t-33.5 81t-81 33.5z" />
    <glyph glyph-name="uniE61D" unicode="&#xe61d;" 
d="M938 354l-415 -415q-12 -11 -27.5 -11t-27 11.5t-11.5 27t11 26.5l392 391l-392 391q-11 11 -11 26.5t11.5 27t27 11.5t27.5 -11l415 -415q12 -12 11 -30q1 -18 -11 -30zM489 384q1 -18 -11 -30l-338 -338q-12 -11 -27.5 -11t-27 11t-11.5 27t11 27l315 314l-315 314
q-11 11 -11 27t11.5 27t27 11t27.5 -11l338 -338q12 -12 11 -30z" />
    <glyph glyph-name="uniE61E" unicode="&#xe61e;" 
d="M89 413l416 415q11 11 26.5 11t27 -11.5t11.5 -27t-11 -26.5l-392 -391l392 -391q11 -11 11 -26.5t-11.5 -27t-27 -11.5t-26.5 11l-416 415q-12 12 -11 30q-1 18 11 30zM538 383q-1 18 11 30l338 338q12 11 27.5 11t27 -11t11.5 -27t-11 -27l-315 -314l315 -314
q11 -11 11 -27t-11.5 -27t-27 -11t-27.5 11l-338 338q-12 12 -11 30z" />
    <glyph glyph-name="uniE61F" unicode="&#xe61f;" 
d="M884 332l-681 -437q-28 -18 -57.5 -11t-29.5 33v933q0 30 28.5 35t58.5 -13l681 -437q21 -21 21 -51t-21 -52zM188 -18l647 402l-647 401v-803z" />
    <glyph glyph-name="uniE620" unicode="&#xe620;" 
d="M877 404zM298 -54.5q-9 9.5 -10 22.5t8 22l376 376q12 12 12 18t-12 18l-376 376q-9 9 -8 22t10 22t22.5 9.5t21.5 -7.5l419 -419q7 -7 7 -18v-6q0 -11 -7 -18l-419 -419q-8 -8 -21.5 -8t-22.5 9.5z" />
    <glyph glyph-name="uniE621" unicode="&#xe621;" 
d="M512 862q-97 0 -185.5 -38t-152.5 -102t-102 -152.5t-38 -185.5t38 -185.5t102 -152.5t152.5 -102t185.5 -38t185.5 38t152.5 102t102 152.5t38 185.5t-38 185.5t-102 152.5t-152.5 102t-185.5 38zM512 -37q-114 0 -211 56.5t-153.5 153.5t-56.5 211t56.5 211
t153.5 153.5t211 56.5t211 -56.5t153.5 -153.5t56.5 -211t-56.5 -211t-153.5 -153.5t-211 -56.5zM340 269h-57v-76q0 -16 11 -27t27 -11h76v57h-57v57zM703 613h-76v-57h57v-57h57v76q0 16 -11 27t-27 11zM340 556h57v57h-76q-16 0 -27 -11t-11 -27v-76h57v57zM684 212h-57
v-57h76q16 0 27 11t11 27v76h-57v-57zM283 422h458v-57h-458v57z" />
    <glyph glyph-name="uniE622" unicode="&#xe622;" 
d="M880 626q-11 18 -28 38l38 38l-38 39l-36 -36l-8 8q-7 6 -18 5.5t-17 -8.5q-7 -7 -6.5 -18t9.5 -17l5 -5l-179 -179v233q0 48 -30 62.5t-65 -15.5l-197 -168h-98q-40 0 -69 -29t-29 -70v-245q0 -42 28.5 -70.5t69.5 -28.5h60l-95 -94l38 -39l111 112l181 -143
q37 -29 66 -14.5t29 60.5v373l107 107l6 -6q15 -14 23 -32q85 -127 -34 -251q-7 -7 -7 -18t6.5 -17.5t17.5 -6.5t17 7q49 53 68.5 109t11.5 106.5t-39 99.5q-14 22 -35 43l73 73q12 -16 22 -32q158 -239 -63 -468q-7 -7 -7 -18t6.5 -17.5t17.5 -6.5t17 7q86 90 120 184
t19.5 179.5t-69.5 168.5zM307 210h-95q-20 0 -34.5 14.5t-14.5 34.5v245q0 20 14.5 35t34.5 15h107q9 0 14 5l203 174q11 9 12.5 8t1.5 -14v-288l-232 -232q-5 3 -11 3zM550 45q0 -15 -1.5 -16.5t-12.5 7.5l-175 137l189 190v-318z" />
    <glyph glyph-name="uniE623" unicode="&#xe623;" 
d="M440 701h437q5 0 11.5 -1t10 -1t7.5 1t6 4t2 9q0 15 -11 25.5t-26 10.5h-437q-15 0 -25.5 -10.5t-10.5 -25.5q0 -6 1.5 -9t5.5 -4t7.5 -1t10.5 1t11 1zM282 145q7 9 9 15q16 30 16 55q0 41 -28.5 69.5t-69 28.5t-68.5 -28.5t-28 -69.5h48q0 21 14.5 35t34.5 14t34 -14
t14 -35q0 -26 -11 -37l-134 -110q-7 -7 -7 -17t7 -17q1 -1 5 -3q8 -10 19 -10h145q11 0 18 7t7 17.5t-7 17.5t-18 7h-91l33 26q43 29 55 44l3 4v1zM161 661v-166q0 -15 10.5 -26t26.5 -11q5 0 8.5 2t4 5.5t0.5 7.5t-0.5 10.5t-0.5 11.5v218v1v1v5q3 12 1 20.5t-13 8.5
q-17 0 -28 -13l-1 -1l-34 -34q-8 -7 -8 -17t8 -17q11 -12 26 -6zM877 531h-437q-15 0 -25.5 -10.5t-10.5 -25.5q0 -6 1.5 -9.5t5.5 -4t7.5 -0.5t10.5 0.5t11 0.5h437q5 0 11.5 -0.5t10 -0.5t7.5 0.5t6 4t2 9.5q0 15 -11 25.5t-26 10.5zM877 312h-437q-15 0 -25.5 -10.5
t-10.5 -25.5q0 -6 1.5 -9t5.5 -4t7.5 -0.5t10.5 1t11 0.5h437q5 0 11.5 -0.5t10 -1t7.5 0.5t6 4t2 9q0 15 -11 25.5t-26 10.5zM877 94h-437q-15 0 -25.5 -10.5t-10.5 -25.5q0 -6 1.5 -9.5t5.5 -4t7.5 -0.5t10.5 0.5t11 0.5h437q5 0 11.5 -0.5t10 -0.5t7.5 0.5t6 4t2 9.5
q0 15 -11 25.5t-26 10.5z" />
    <glyph glyph-name="uniE624" unicode="&#xe624;" 
d="M512 804q174 0 297 -123t123 -297t-123 -297t-297 -123t-297 123t-123 297t123 297t297 123zM512 864q-98 0 -186.5 -38t-153 -102.5t-102.5 -153t-38 -186.5t38 -186.5t102.5 -153t153 -102.5t186.5 -38t186.5 38t153 102.5t102.5 153t38 186.5t-38 186.5t-102.5 153
t-153 102.5t-186.5 38zM727 444.5q-3 -13.5 -9 -22t-10 -8t-7 5.5t-5 20q-3 23 -15 34t-38 15q-26 6 -47 22q-20 16 -34 30q-13 13 -20 9.5t-7 -13.5v-25v-261v-33q0 -15 -5 -32t-18.5 -32.5t-37 -26.5t-57.5 -13q-35 -2 -63 12.5t-43.5 36t-15 47t22.5 48.5q22 22 47.5 31
t49 10t41.5 -3q19 -4 28 -8q0 267 1 325q0 17 8.5 28t23.5 13q12 2 20 -5t17 -19q8 -13 20 -28t33 -30q18 -14 31 -19q15 -7 25 -11q11 -5 22.5 -12.5t24.5 -23.5q14 -15 17 -31.5t0 -30z" />
    <glyph glyph-name="uniE625" unicode="&#xe625;" 
d="M788 -99h-138q-29 0 -49 20.5t-20 48.5v828q0 28 20 48.5t49 20.5h138q28 0 48.5 -20.5t20.5 -48.5v-828q0 -28 -20.5 -48.5t-48.5 -20.5zM788 763q0 14 -10 24.5t-25 10.5h-69q-14 0 -24 -10.5t-10 -24.5v-758q0 -14 10 -24.5t24 -10.5h69q15 0 25 10.5t10 24.5v758z
M374 -99h-138q-28 0 -48.5 20.5t-20.5 48.5v828q0 28 20.5 48.5t48.5 20.5h138q29 0 49 -20.5t20 -48.5v-828q0 -28 -20 -48.5t-49 -20.5zM374 763q0 14 -10 24.5t-24 10.5h-69q-15 0 -25 -10.5t-10 -24.5v-758q0 -14 10 -24.5t25 -10.5h69q14 0 24 10.5t10 24.5v758z" />
    <glyph glyph-name="uniE626" unicode="&#xe626;" 
d="M914 -85h-804q-28 0 -47.5 19.5t-19.5 47.5v804q0 28 19.5 47.5t47.5 19.5h804q28 0 47.5 -19.5t19.5 -47.5v-804q0 -28 -19.5 -47.5t-47.5 -19.5zM914 753q0 14 -9.5 23.5t-23.5 9.5h-738q-14 0 -23.5 -9.5t-9.5 -23.5v-738q0 -14 9.5 -23.5t23.5 -9.5h738
q14 0 23.5 9.5t9.5 23.5v738z" />
    <glyph glyph-name="uniE627" unicode="&#xe627;" 
d="M47 427l512 367q14 7 26 9.5t23 -0.5t17.5 -17.5t6.5 -39.5v-160l289 208q19 10 34.5 11t27.5 -14t11 -47v-721q0 -29 -12 -45t-28 -15t-33 9l-289 208v-158q0 -28 -12 -44t-28 -15t-33 9l-512 368q-17 18 -17 43.5t17 43.5zM934 721l-362 -253v253l-483 -338l483 -337
v253l362 -253v675z" />
    <glyph glyph-name="uniE628" unicode="&#xe628;" 
d="M977 340l-512 -368q-17 -8 -33 -9t-28 15t-12 44v158l-289 -208q-17 -8 -33 -9t-28 15t-12 45v721q-1 32 11 47t27.5 14t34.5 -11l289 -208v160q0 25 6.5 39.5t17.5 17.5t23 0.5t26 -9.5l512 -367q17 -18 17 -43.5t-17 -43.5zM90 46l362 253v-253l483 337l-483 338v-253
l-362 253v-675z" />
    <glyph glyph-name="uniE629" unicode="&#xe629;" 
d="M512 830q-91 0 -173.5 -35.5t-142 -95t-95 -142t-35.5 -173.5t35.5 -173.5t95 -142t142 -95t173.5 -35.5t173.5 35.5t142 95t95 142t35.5 173.5t-35.5 173.5t-95 142t-142 95t-173.5 35.5zM512 2q-104 0 -192 51t-139 139t-51 192t51 192t139 139t192 51t192 -51
t139 -139t51 -192t-51 -192t-139 -139t-192 -51zM512 544q-66 0 -113 -47t-47 -113t47 -113t113 -47t113 47t47 113t-47 113t-113 47z" />
    <glyph glyph-name="uniE62A" unicode="&#xe62a;" 
d="M832 -32h-640q-40 0 -68 28t-28 68v640q0 40 28 68t68 28h640q40 0 68 -28t28 -68v-640q0 -40 -28 -68t-68 -28zM192 736q-13 0 -22.5 -9.5t-9.5 -22.5v-640q0 -13 9.5 -22.5t22.5 -9.5h640q13 0 22.5 9.5t9.5 22.5v640q0 13 -9.5 22.5t-22.5 9.5h-640z" />
    <glyph glyph-name="uniE62B" unicode="&#xe62b;" 
d="M117 218q11 -3 27 -5t44 -3t47.5 -1.5t65.5 -1.5t71 -2q-8 -35 -8 -99q0 -78 47 -140t101 -62q37 0 63.5 26t26.5 63q0 27 5 53.5t17 58t37 59.5t61 47q20 11 32 16l-2 1q28 -24 60 -24h90q37 0 63.5 26.5t26.5 63.5v480q0 37 -26.5 63.5t-63.5 26.5h-90
q-26 0 -47.5 -14.5t-32.5 -37.5q-1 0 -1 1q-2 0 -4 0.5t-4 0.5h-1v1q-34 8 -122 28q-90 21 -179 21h-164q-75 0 -107 -58q-8 -15 -13 -32q-8 -25 -1 -53q-32 -22 -49 -77q-15 -47 0 -82q-32 -30 -40 -83q-7 -38 11 -71q-24 -27 -25 -66l-1 -6v-15q0 -31 22 -61t63 -42z
M782 774q0 12 9 21t21 9h90q12 0 21 -9t9 -21v-480q0 -12 -9 -21t-21 -9h-90q-12 0 -21 9t-9 21v480zM93 340q1 44 59 44h60q15 0 15 15t-15 15h-58q-30 0 -40.5 18.5t-7.5 36.5q11 65 65 65h71q15 0 15 15t-15 15h-59q-23 0 -34 11t-9.5 24.5t4.5 26.5q5 16 8 22t11 17
t22.5 15t37.5 4h49q6 0 10.5 4.5t4.5 10.5t-4.5 10.5t-10.5 4.5h-47q-21 0 -28 15t-3 27q3 8 9 22q14 26 54 26h164q83 0 166 -19q118 -27 139 -33q3 -1 7.5 -2t11.5 -8t7 -17v-414q0 -24 -24 -31q-1 -1 -3 -1.5t-3 -1.5q-49 -20 -85.5 -53t-56 -72t-29 -78t-9.5 -80
q0 -12 -8.5 -21t-21.5 -9q-27 0 -57.5 44t-30.5 98q0 53 4.5 77t23.5 81q-142 0 -212 1.5t-82 3.5t-30 6q-36 10 -36 46q0 1 1 19zM857 684q19 0 32 13t13 32t-13 32t-32 13t-32 -13t-13 -32t13 -32t32 -13zM857 744q15 0 15 -15t-15 -15t-15 15t15 15z" />
    <glyph glyph-name="uniE62C" unicode="&#xe62c;" 
d="M608 157l-65 -64v346q0 13 -9 22t-22 9t-22 -9t-9 -22v-346l-65 64q-9 9 -21.5 9t-22 -9t-9.5 -22t9 -22l109 -108l3 -3l10 -10q8 -6 18 -6t18 6l10 10l3 3l109 108q9 9 9 22t-9.5 22t-22 9t-21.5 -9zM668 621q-48 42 -115 50q-5 1 -7 1q-10 0 -16.5 -7t-6.5 -16
q0 -16 15 -22q1 0 3 -1h2h2h1h1q54 -6 90 -40q12 -9 19 -9q10 0 17 7t7 16q0 4 -3 9.5t-6 8.5zM844 537q-28 107 -115.5 176t-200.5 69q-111 0 -198 -66.5t-117 -170.5q-79 -12 -132 -73t-53 -143q0 -81 54 -142t134 -73h46q13 0 22.5 9t9.5 22t-9.5 22t-22.5 9h-46
q-54 11 -89.5 54t-35.5 99q0 65 45.5 110.5t110.5 45.5q8 0 17 -1q12 100 87 167.5t176.5 67.5t176.5 -67.5t87 -166.5q60 -5 101 -50t41 -106q0 -56 -35.5 -99t-89.5 -53h-46q-13 0 -22.5 -9.5t-9.5 -22.5t9.5 -22t22.5 -9h62q74 16 123 77t49 138q0 72 -42.5 129.5
t-109.5 78.5zM730 532q0 1 -0.5 2t-0.5 2l-7 14q-13 18 -24 18q-10 0 -17 -6.5t-7 -16.5l2 -10q8 -13 10 -18l5 -7q7 -7 17 -7t16.5 6.5t6.5 16.5q0 1 -1 6zM512 384z" />
    <glyph glyph-name="uniE62D" unicode="&#xe62d;" 
d="M920 78l-236 138q-13 7 -21 -6l-15 -26q-8 -14 5 -21l146 -85h-689q-6 0 -10 -4t-4 -10v-29q0 -5 4 -9t10 -4h804q6 0 10 4t4 10v28v1q0 9 -8 13zM920 342l-236 138q-13 8 -21 -5l-15 -27q-8 -13 5 -21l146 -85h-680q-6 0 -10 -4t-4 -9v-29q0 -6 4 -10t10 -4h795
q6 0 10 4t4 10v28v1q0 9 -8 13zM928 593q0 9 -8 14l-236 138q-13 7 -21 -6l-15 -27q-8 -13 5 -20l146 -85h-689q-6 0 -10 -4t-4 -10v-29q0 -5 4 -9t10 -4h804q6 0 10 4t4 10v28v0z" />
    <glyph glyph-name="uniE62E" unicode="&#xe62e;" 
d="M832 800h-640q-40 0 -68 -28t-28 -68v-640q0 -40 28 -68t68 -28h640q40 0 68 28t28 68v640q0 40 -28 68t-68 28zM727 458l-256 -259v-1q-2 -1 -7 -4q-1 -1 -2 -1.5t-2 -1.5q-6 -2 -12 -2t-12 2q-1 1 -2 1.5t-1 1.5q-6 3 -7 4v1h-1l-126 129q-9 10 -9 23t9.5 22.5t23 9
t22.5 -9.5l103 -106l234 236q9 9 22.5 9t22.5 -9.5t9.5 -22.5t-9.5 -22z" />
    <glyph glyph-name="uniE62F" unicode="&#xe62f;" 
d="M382 536q-3 2 -7 5.5t-18.5 11t-29.5 10.5t-37.5 -0.5t-44.5 -16.5q-19 -12 -32.5 -29t-18 -32.5t-6.5 -29.5t-1 -23l1 -8l-18 -5q-10 -3 -37 -16.5t-47.5 -32.5t-37 -55t-16.5 -81q0 -32 10 -58.5t24.5 -42.5t33.5 -28t35 -18t33 -9t23.5 -3.5t9.5 -0.5l330 1l-153 138
l85 -1v168l109 1l1 -168l83 -1l-125 -138h280q3 0 9 0.5t22.5 3.5t31.5 8t34.5 16.5t34.5 26.5t27.5 40t16.5 56q3 46 -11.5 83.5t-36.5 58t-45 34t-40 17.5l-16 5q0 3 0.5 8.5t-0.5 22.5t-3.5 33.5t-8.5 39.5t-15.5 43t-25.5 41.5t-36.5 38t-50.5 29t-66 16.5
q-54 6 -99.5 -9t-72 -38.5t-45.5 -50t-26 -43t-7 -18.5z" />
    <glyph glyph-name="uniE630" unicode="&#xe630;" 
d="M928 352h-832q-13 0 -22.5 9.5t-9.5 22.5t9.5 22.5t22.5 9.5h832q13 0 22.5 -9.5t9.5 -22.5t-9.5 -22.5t-22.5 -9.5zM832 -32h-192q-13 0 -22.5 9.5t-9.5 22.5t9.5 22.5t22.5 9.5h192q13 0 22.5 9.5t9.5 22.5v160q0 13 9.5 22.5t22.5 9.5t22.5 -9.5t9.5 -22.5v-160
q0 -40 -28 -68t-68 -28zM352 -32h-160q-40 0 -68 28t-28 68v160q0 13 9.5 22.5t22.5 9.5t22.5 -9.5t9.5 -22.5v-160q0 -13 9.5 -22.5t22.5 -9.5h160q13 0 22.5 -9.5t9.5 -22.5t-9.5 -22.5t-22.5 -9.5zM128 512q-13 0 -22.5 9.5t-9.5 22.5v160q0 40 28 68t68 28h160
q13 0 22.5 -9.5t9.5 -22.5t-9.5 -22.5t-22.5 -9.5h-160q-13 0 -22.5 -9.5t-9.5 -22.5v-160q0 -13 -9.5 -22.5t-22.5 -9.5zM896 512q-13 0 -22.5 9.5t-9.5 22.5v160q0 13 -9.5 22.5t-22.5 9.5h-192q-13 0 -22.5 9.5t-9.5 22.5t9.5 22.5t22.5 9.5h192q40 0 68 -28t28 -68v-160
q0 -13 -9.5 -22.5t-22.5 -9.5z" />
    <glyph glyph-name="uniE631" unicode="&#xe631;" 
d="M551 148h-232q-95 0 -163 67.5t-68 163.5v12q0 95 67 163q8 8 8 19.5t-8 19.5t-19.5 8t-19.5 -8q-83 -84 -83 -202v-12q0 -119 84 -202.5t202 -83.5h232q12 0 20 8t8 19.5t-8 19.5t-20 8zM700 677h-260v75q0 23 -14 30.5t-33 -5.5l-148 -97q-20 -12 -20 -30t20 -31
l148 -97q19 -13 33 -5.5t14 31.5v74h260q96 0 163.5 -67.5t67.5 -163.5v-12q0 -58 -27 -108.5t-74 -82.5q-10 -7 -12 -18t4 -21q9 -12 23 -12q9 0 16 5q59 40 92.5 103t33.5 134v12q0 119 -84 202.5t-203 83.5zM719 444h-27q-9 0 -13 -8q-9 -19 -32 -40q-24 -21 -57 -36
q-8 -4 -8 -13v-40q0 -7 6 -12q4 -2 9 -2q2 0 5 1q20 7 45 22l16 10v-229q0 -6 4.5 -10t10.5 -4h41q6 0 10 4t4 10v333q0 6 -4 10t-10 4z" />
    <glyph glyph-name="uniE632" unicode="&#xe632;" 
d="M944 484l-92 18q-7 19 -16 39l52 78q12 18 9.5 39t-17.5 37l-57 57q-18 18 -43 18q-18 0 -33 -10l-78 -52q-20 9 -39 16l-18 92q-5 21 -21.5 34.5t-37.5 13.5h-82q-21 0 -37.5 -13.5t-21.5 -34.5l-18 -92q-19 -7 -39 -16l-78 52q-15 10 -33 10q-25 0 -43 -18l-57 -57
q-15 -16 -17.5 -37t9.5 -39l52 -78q-9 -20 -16 -39l-92 -18q-21 -5 -34.5 -21.5t-13.5 -37.5v-82q0 -21 13.5 -37.5t34.5 -21.5l92 -18q7 -19 16 -39l-52 -78q-12 -18 -9.5 -39t17.5 -37l57 -57q18 -18 43 -18q18 0 33 10l78 52q19 -9 39 -16l18 -92q5 -21 21.5 -34.5
t37.5 -13.5h82q21 0 37.5 13.5t21.5 34.5l18 92q19 7 39 16l78 -52q15 -10 33 -10q25 0 43 18l57 57q15 16 17.5 37t-9.5 39l-52 78q9 19 16 39l92 18q21 5 34.5 21.5t13.5 37.5v82q0 21 -13.5 37.5t-34.5 21.5zM840 325q-34 -7 -45 -39q-6 -17 -13 -33q-15 -30 4 -59
l52 -78l-58 -58l-78 52q-15 10 -33 10q-14 0 -26 -6q-17 -8 -33 -13q-32 -11 -39 -45l-18 -92h-82l-18 92q-7 34 -39 45q-17 6 -33 13q-12 6 -26 6q-18 0 -33 -10l-78 -52l-58 58l52 78q19 28 4 59q-8 17 -13 33q-11 32 -45 39l-92 18v82l92 18q34 7 45 39q6 17 13 33
q15 30 -4 59l-52 78l58 58l78 -52q15 -10 33 -10q14 0 26 6q17 7 33 13q32 11 39 45l18 92h82l18 -92q7 -34 39 -45q17 -6 33 -13q12 -6 26 -6q18 0 33 10l78 52l58 -58l-52 -78q-19 -29 -4 -59q8 -17 13 -33q11 -32 45 -39l92 -18v-82zM512 594q-87 0 -148.5 -61.5
t-61.5 -148.5t61.5 -148.5t148.5 -61.5t148.5 61.5t61.5 148.5t-61.5 148.5t-148.5 61.5zM512 200q-76 0 -130 54t-54 130t54 130t130 54t130 -54t54 -130t-54 -130t-130 -54zM512 504q-50 0 -85 -35t-35 -85t35 -85t85 -35t85 35t35 85t-35 85t-85 35zM512 294
q-37 0 -63.5 26.5t-26.5 63.5t26.5 63.5t63.5 26.5t63.5 -26.5t26.5 -63.5t-26.5 -63.5t-63.5 -26.5z" />
    <glyph glyph-name="uniE633" unicode="&#xe633;" 
d="M727 502.5q-9 9.5 -22.5 9.5t-22.5 -9l-234 -236l-103 106q-9 9 -22.5 9.5t-23 -9t-9.5 -22.5t9 -23l126 -129h1v-1q1 -1 7 -4q0 -1 1 -1.5t2 -1.5q6 -2 12 -2t12 2q1 1 2 1.5t2 1.5q5 3 7 4v1l256 259q10 9 9.5 22t-9.5 22.5zM832 -32h-640q-40 0 -68 28t-28 68v640
q0 40 28 68t68 28h640q40 0 68 -28t28 -68v-640q0 -40 -28 -68t-68 -28zM192 736q-13 0 -22.5 -9.5t-9.5 -22.5v-640q0 -13 9.5 -22.5t22.5 -9.5h640q13 0 22.5 9.5t9.5 22.5v640q0 13 -9.5 22.5t-22.5 9.5h-640z" />
    <glyph glyph-name="uniE634" unicode="&#xe634;" 
d="M915 570h-806q-13 0 -22 -9t-9 -22v-279q0 -13 9 -22t22 -9h31v-310q0 -13 9 -22t22 -9h682q13 0 22 9t9 22v310h31q13 0 22 9t9 22v279q0 13 -9 22t-22 9zM450 -19q0 -13 -9 -22t-22 -9h-186q-13 0 -22 9t-9 22v248q0 13 9 22t22 9h186q13 0 22 -9t9 -22v-248zM450 353
q0 -13 -9 -22t-22 -9h-248q-13 0 -22 9t-9 22v124q0 13 9 22t22 9h248q13 0 22 -9t9 -22v-124zM822 -19q0 -13 -9 -22t-22 -9h-186q-13 0 -22 9t-9 22v248q0 13 9 22t22 9h186q13 0 22 -9t9 -22v-248zM884 353q0 -13 -9 -22t-22 -9h-248q-13 0 -22 9t-9 22v124q0 13 9 22
t22 9h248q13 0 22 -9t9 -22v-124zM374 570h286q93 67 100 130q6 54 -42 92q-34 26 -67 26q-87 0 -133 -164q-11 42 -24.5 78t-33 71.5t-46.5 56t-57 20.5q-38 0 -74 -32q-58 -51 -48 -116q12 -82 139 -162zM650 744q11 0 26 -12q16 -13 15 -23q-2 -20 -34 -48.5t-79 -56.5
q14 60 33.5 100t38.5 40zM327 790q17 15 30 15q26 0 53.5 -58.5t46.5 -139.5q-61 32 -105 69t-49 68q-3 23 24 46z" />
    <glyph glyph-name="uniE635" unicode="&#xe635;" 
d="M512 288q-40 0 -68 28t-28 68t28 68t68 28t68 -28t28 -68t-28 -68t-68 -28zM512 416q-13 0 -22.5 -9.5t-9.5 -22.5t9.5 -22.5t22.5 -9.5t22.5 9.5t9.5 22.5t-9.5 22.5t-22.5 9.5zM631 -64q-16 0 -26 13l-73 101q-20 -2 -40 0l-73 -101q-14 -18 -35 -12q-52 15 -98 41
q-19 10 -16 32l20 124q-15 13 -28 28l-124 -20q-22 -3 -32 16q-26 47 -41 98q-6 22 12 35l101 73q-1 9 -1 20t1 20l-101 73q-18 14 -12 35q15 52 41 98q10 19 32 16l124 -20q13 15 28 28l-20 124q-3 22 17 32q46 26 97 41q22 6 35 -12l73 -101q20 2 40 0l73 101q13 18 35 12
q51 -15 98 -41q19 -10 16 -32l-20 -124q15 -13 28 -27l124 19q22 3 32 -16q26 -46 41 -98q6 -22 -12 -35l-101 -73q1 -9 1 -20t-1 -20l101 -73q18 -13 12 -35q-15 -52 -41 -98q-11 -19 -33 -16l-123 19q-12 -14 -28 -27l20 -124q3 -22 -16 -32q-46 -26 -98 -41q-5 -1 -9 -1z
M337 23q21 -10 44 -18l70 97q11 15 30 13q31 -4 62 0q19 2 30 -13l70 -97q23 8 44 18l-19 119q-3 18 12 30q25 20 44 44q12 15 30 12l118 -19q11 21 18 44l-96 70q-15 11 -13 30q2 16 2 31t-2 31q-2 19 13 30l96 70q-7 23 -18 44l-118 -19q-18 -3 -30 12q-20 25 -44 44
q-14 12 -12 30l19 119q-21 10 -44 18l-70 -97q-11 -15 -30 -13q-31 4 -62 0q-19 -2 -30 13l-70 97q-23 -8 -44 -18l19 -119q2 -18 -12 -30q-24 -19 -44 -44q-12 -14 -30 -12l-119 19q-10 -21 -18 -44l97 -70q15 -11 13 -30q-2 -16 -2 -31t2 -31q2 -19 -13 -30l-97 -70
q8 -23 18 -44l119 19q18 2 30 -12q19 -25 44 -44q15 -12 12 -30z" />
    <glyph glyph-name="uniE636" unicode="&#xe636;" 
d="M202 768h752l-133 -666l-402 -134l-349 134l36 178h148l-14 -74l210 -80l244 80l34 170h-604l28 148h605l19 96h-604z" />
    <glyph glyph-name="uniE637" unicode="&#xe637;" 
d="M980 438l-41 51q-18 22 -33 58t-18 64l-7 66q-3 28 -25.5 50t-50.5 26l-66 7q-28 3 -64 18t-58 33l-51 41q-22 17 -53.5 17t-53.5 -17l-52 -41q-22 -18 -58 -33t-64 -18l-66 -7q-28 -3 -50 -25.5t-26 -50.5l-7 -66q-3 -28 -18 -64t-33 -58l-41 -51q-17 -22 -17 -53.5
t17 -53.5l41 -52q18 -22 33 -58t18 -64l7 -65q3 -29 25.5 -51t50.5 -26l66 -7q28 -3 64 -18t58 -32l51 -42q22 -17 53.5 -17t54.5 17l51 42q22 17 58 32t64 18l65 7q29 4 51 26.5t26 50.5l7 65q3 28 18 64t32 58l42 52q17 22 17 53t-17 54zM569 122h-86v422
q-49 -44 -120 -65v86q33 8 75 31q39 23 66 51h65v-525z" />
    <glyph glyph-name="uniE638" unicode="&#xe638;" 
d="M978 -33l-220 221q97 114 97 264q0 112 -55 206t-149.5 149t-205.5 55t-205.5 -55t-149.5 -149t-55 -205.5t55 -206t149.5 -149t205.5 -54.5q150 0 264 97l221 -221q11 -11 26 -12t25 9t9.5 25t-12.5 26zM445 111q-93 0 -171.5 45.5t-124 124.5t-45.5 171.5t45.5 171
t124 124.5t171.5 46t171.5 -46t124 -124.5t45.5 -171t-45.5 -171.5t-124 -124.5t-171.5 -45.5z" />
    <glyph glyph-name="uniE639" unicode="&#xe639;" 
d="M756 68h-528q-11 0 -19 -8t-8 -19.5t8 -19.5t19 -8h528q12 0 20 8t8 19.5t-8 19.5t-20 8zM228 558h255q12 0 20 8t8 19.5t-8 19t-20 7.5h-255q-11 0 -19 -7.5t-8 -19t8 -19.5t19 -8zM156 68h-37q-11 0 -19 -8t-8 -19.5t8 -19.5t19 -8h37q11 0 19 8t8 19.5t-8 19.5t-19 8z
M156 612h-37q-11 0 -19 -7.5t-8 -19t8 -19.5t19 -8h37q11 0 19 8t8 19.5t-8 19t-19 7.5zM156 340h-37q-11 0 -19 -8t-8 -19t8 -19t19 -8h37q11 0 19 8t8 19t-8 19t-19 8zM876 710q-18 20 -40.5 35.5t-40 23.5t-35.5 13.5t-25 6.5t-11 2q-11 1 -19.5 -5.5t-10.5 -17.5
l-16 -95q-2 -11 4.5 -20t17.5 -11t20.5 4.5t11.5 17.5l11 67q55 -17 93 -58q20 -22 30.5 -62t8.5 -78q-35 30 -83.5 50t-69.5 24t-35 5q-10 2 -18.5 -4.5t-10.5 -17.5l-38 -210l-4 4q-52 53 -134 57q-77 5 -136.5 -35.5t-64.5 -101.5q-5 -53 32 -97q51 -59 142 -65h10
q48 0 94.5 25.5t73.5 66.5q21 31 26 58l48 262q110 -24 160 -94q9 -12 24.5 -11t22.5 15q15 30 16 76t-13 93.5t-41 76.5zM606 302q-4 -16 -18 -38q-21 -31 -57.5 -50t-71.5 -17q-69 4 -105 46q-22 26 -19 56q3 37 42 62.5t91 25.5h11q61 -4 98 -41q8 -8 18 -8.5t18 5.5z
" />
    <glyph glyph-name="uniE63A" unicode="&#xe63a;" 
d="M444 -34l116 159l-116 33v-192zM33 340l330 -100l407 345l-315 -372l353 -109l182 700z" />
    <glyph glyph-name="uniE63B" unicode="&#xe63b;" 
d="M557 383l266 264q9 9 9 22t-9.5 22.5t-22.5 9.5t-23 -9l-265 -264l-263 264q-9 9 -22.5 9t-23 -9t-9.5 -22.5t10 -22.5l263 -264l-265 -264q-10 -9 -10 -22.5t9.5 -22.5t22.5 -9t23 9l265 264l265 -267q10 -9 23 -9t22.5 9.5t9.5 22.5t-9 23z" />
    <glyph glyph-name="uniE63C" unicode="&#xe63c;" 
d="M961 695h-84v-84q0 -6 -4 -10t-10 -4h-28q-6 0 -10 4t-4 10v84h-84q-6 0 -10 4t-4 10v28q0 6 4 10t10 4h84v84q0 6 4 10t10 4h28q6 0 10 -4t4 -10v-84h84q6 0 10 -4t4 -10v-28q0 -6 -4 -10t-10 -4zM527 205q-7 5 -19.5 14t-43.5 37t-55 57t-43.5 69.5t-19.5 77.5
q0 48 21 78.5t69 30.5q19 0 35 -5.5t26 -13.5t17 -16t10 -14l3 -6q1 3 3.5 6.5t10.5 13t17.5 16.5t25.5 13t34 6q49 0 70 -30.5t21 -78.5q0 -37 -18.5 -77t-45.5 -70.5t-53.5 -55.5t-45.5 -38zM136 401.5q0 -106.5 52.5 -197t142.5 -142.5t196.5 -52t196.5 52t142.5 142.5
t52.5 196.5q0 8 -1 28h56q1 -15 1 -28q0 -91 -35.5 -174t-95.5 -143t-143 -95t-174 -35t-173.5 35t-142.5 95t-95.5 143t-35.5 174t35.5 174t95.5 143t142.5 95.5t173.5 35.5q13 0 28 -1v-57q-20 2 -28 2q-106 0 -196 -52.5t-142.5 -142.5t-52.5 -196.5z" />
    <glyph glyph-name="uniE63D" unicode="&#xe63d;" 
d="M512 288q-79 0 -135.5 56.5t-56.5 135.5t56.5 135.5t135.5 56.5t135.5 -56.5t56.5 -135.5t-56.5 -135.5t-135.5 -56.5zM512 608q-53 0 -90.5 -37.5t-37.5 -90.5t37.5 -90.5t90.5 -37.5t90.5 37.5t37.5 90.5t-37.5 90.5t-90.5 37.5zM512 -64q-13 0 -22 9q-10 9 -10 22.5
t9 22.5q39 41 86 97.5t100.5 129.5t89 144.5t35.5 118.5q0 119 -84.5 203.5t-203.5 84.5t-203.5 -84.5t-84.5 -203.5q0 -57 52.5 -151.5t151.5 -215.5q9 -11 7.5 -24t-12 -21.5t-23.5 -7t-21 11.5q-219 268 -219 408q0 146 103 249t249 103t249 -103t103 -249
q0 -53 -34 -127.5t-76.5 -136.5t-98 -130.5t-80 -95.5t-40.5 -44q-9 -10 -23 -10z" />
    <glyph glyph-name="uniE63E" unicode="&#xe63e;" 
d="M241 362q26 5 43.5 21t24.5 32.5t9 39.5t1.5 34t-1.5 23q-4 33 -35.5 65.5t-72.5 29.5q-21 -2 -37.5 -14t-25 -28t-14 -32t-7.5 -27l-1 -11q-4 -19 1 -44t18 -48t38.5 -35.5t58.5 -5.5zM339 175q-9 -26 -4 -44q5 -17 17 -25t20.5 -7t9.5 0h52v104h-52q-16 -5 -28.5 -13.5
t-14.5 -14.5zM412 542q38 0 65 37.5t27 90.5t-27 90.5t-65 37.5t-65 -37.5t-27 -90.5t27 -90.5t65 -37.5zM631 534q47 -6 80 31.5t40 84.5q7 40 -19.5 79t-63.5 48q-34 7 -71.5 -34t-42.5 -80q-5 -51 12.5 -87t64.5 -42zM798 218q-12 9 -31 24.5t-64 59t-72 81.5
q-30 45 -67 64t-70.5 13.5t-61 -23.5t-42.5 -43q-18 -28 -42.5 -54t-45 -43t-22.5 -19q-1 -2 -12 -10t-23.5 -18t-27.5 -26.5t-25 -35.5t-15 -44.5t2 -52.5q8 -32 24 -56t31.5 -36t34 -19t25.5 -8.5t11 -1.5q61 3 140 20q40 8 72.5 6.5t53 -5.5t20.5 -5q4 -1 11 -3t27 -6
t39 -6t44 0t45.5 8.5t39.5 22.5t29 40q42 96 -15 163zM486 48h-130q-48 1 -68 48q-17 38 -10 80q10 32 29.5 51.5t34.5 23.5l14 4h78v77h52v-284zM693 48h-129q-15 0 -25.5 5.5t-15.5 12t-7.5 14.5t-3 11.5t-0.5 4.5v159h52v-130q1 -6 7.5 -12.5t12.5 -9.5l5 -4h52v156h52
v-207zM901 444q0 11 -5 27t-16 33.5t-32.5 30t-49.5 12.5q-92 0 -92 -125q0 -19 1 -32t6.5 -30.5t16 -28t31.5 -18.5t50 -7q16 0 29.5 4t22.5 11.5t16 15t11 19.5t6.5 20t3.5 21t1 19v16v12z" />
    <glyph glyph-name="uniE63F" unicode="&#xe63f;" 
d="M512 -64q-91 0 -174 35.5t-143 95.5t-95.5 143t-35.5 174q0 185 131.5 316.5t316.5 131.5q91 0 174 -35.5t143 -95.5t95.5 -143t35.5 -174t-35.5 -174t-95.5 -143t-143 -95.5t-174 -35.5zM512 768q-159 0 -271.5 -112.5t-112.5 -271.5q0 -104 51.5 -192.5t140 -140
t192.5 -51.5t192.5 51.5t140 140t51.5 192.5t-51.5 192.5t-140 140t-192.5 51.5zM416 158q-7 0 -14 3q-18 9 -18 29v322h-64q-13 0 -22.5 9.5t-9.5 22.5t9.5 22.5t22.5 9.5h96q13 0 22.5 -9.5t9.5 -22.5v-286l232 190h-8q-13 0 -22.5 9.5t-9.5 22.5t9.5 22.5t22.5 9.5h97
q23 0 30.5 -21t-10.5 -36l-353 -289q-9 -8 -20 -8z" />
    <glyph glyph-name="uniE640" unicode="&#xe640;" 
d="M161 749h700v-79h-700v79zM800 280v308h-578v-308h578zM306 509h411v-151h-411v151zM675 102q38 58 71 134l-84 31q-33 -91 -76 -165h-147q-36 97 -82 165l-77 -31q48 -72 77 -134h-215v-78h739v78h-206z" />
    <glyph glyph-name="uniE641" unicode="&#xe641;" 
d="M493 462h28q16 1 37 1q22 0 37.5 -0.5t27 -0.5t22 -1t22.5 -2v51q-13 -2 -23.5 -3t-22 -1.5t-26.5 -0.5h-37h-35q-15 0 -28.5 1t-26.5 2t-29 2v-51q15 1 28 2t26 1zM667 459zM438 267q-4 10 -7 26q-11 -13 -23 -25.5t-27 -27.5v172q0 21 1.5 39.5t4.5 33.5
q-13 -3 -28.5 -4t-35 -1t-33.5 1t-26 4v-54q11 2 26.5 2.5t43.5 0.5v-176q0 -22 -7 -42t-22 -35q10 -10 18.5 -21.5t16.5 -26.5q5 7 9.5 13t8.5 11.5t9.5 11t11.5 12.5l70 69q-7 7 -11 17zM360 533l51 29q-15 24 -28.5 45t-26.5 39l-47 -27q12 -18 25 -39t26 -47zM640 214
q-1 7 -2 16l-2 18q-1 9 -1 18v14v73q0 18 1 35.5t4 26.5q-7 -1 -13.5 -2t-16 -1.5t-22.5 -0.5h-33h-33q-15 0 -25.5 0.5t-19 1.5t-15.5 2q2 -10 3 -28t1 -35v-82q0 -22 -1 -42.5t-5 -39.5h52v55h78v-29h50zM512 280v89h78v-89h-78zM727.5 610.5q-15.5 -1.5 -34.5 -1.5h-42
q-25 -1 -59 -1h-46q-19 0 -34 0.5t-27.5 1.5t-26.5 2v-53q15 2 29 3.5t29 2.5t31.5 1.5t36.5 0.5h122v-362q0 -9 -2 -13t-9.5 -5.5t-22 -0.5t-37.5 4q13 -16 19.5 -34t6.5 -34q33 4 52 9t29 12t12.5 18t2.5 28v380q0 10 0.5 17.5t1 14t1.5 12.5q-17 -1 -32.5 -2.5zM512 832
q-91 0 -174 -35.5t-143 -95.5t-95.5 -142.5t-35.5 -174t35.5 -174t95.5 -142.5t143 -95.5t174 -35.5t174 35.5t143 95.5t95.5 142.5t35.5 174t-35.5 174t-95.5 142.5t-143 95.5t-174 35.5zM512 -19q-109 0 -202 54t-147 147t-54 202.5t54 202t147 146.5t202 54t202 -54
t147 -146.5t54 -202t-54 -202.5t-147 -147t-202 -54z" />
    <glyph glyph-name="uniE642" unicode="&#xe642;" 
d="M888 40q0 57 -40 97.5t-97 40.5q-49 0 -87 -33l-272 174q17 32 17 65q0 31 -14 60l272 176q38 -30 84 -30q57 0 97 40.5t40 97.5t-40 97t-96.5 40t-96.5 -40t-40 -97q0 -28 10 -53l-273 -177l3 -5q-37 28 -82 28q-57 0 -97 -40t-40 -97t40 -97t97 -40q38 0 72 21
l279 -180q-9 -24 -9 -48q0 -57 40 -97t96.5 -40t96.5 40t40 97v0zM713 671l-28 43v-1q-2 8 -2 15q0 28 20 48t48.5 20t48.5 -20t20 -48.5t-20 -48.5t-49 -20q-20 0 -38 12v0zM204 384q0 28 20 48.5t48.5 20.5t48.5 -20t20 -48.5t-20 -49t-48.5 -20.5t-48.5 20.5t-20 48.5z
M683 40q0 29 20 49t48.5 20t48.5 -20t20 -48.5t-20 -48.5t-48.5 -20t-48.5 20t-20 48v0z" />
    <glyph glyph-name="uniE643" unicode="&#xe643;" 
d="M889.5 308q-13.5 0 -22.5 -9t-9 -23v-229q0 -15 -10 -25t-25 -10h-663q-15 0 -25 10t-10 25v571q0 15 10 25t25 10h310q13 0 22.5 9.5t9.5 22.5t-9.5 22.5t-22.5 9.5h-315q-38 0 -65.5 -27.5t-27.5 -66.5v-581q0 -38 27.5 -65.5t65.5 -27.5h673q38 0 65.5 27.5t27.5 65.5
v235q0 13 -9 22t-22.5 9zM959 569v1l-224 224l-1 -1q-8 5 -16 5q-14 0 -23.5 -10t-9.5 -23q0 -9 4 -16l-1 -1l151 -152h-155q-74 -9 -129.5 -34t-91.5 -60.5t-59.5 -89t-35 -111.5t-17.5 -136q0 -13 9.5 -23t23.5 -10q11 0 19.5 6.5t11.5 17.5l2 8q6 74 15.5 125t28 96
t47.5 73t73 46.5t104 25.5h154l-144 -145l-6 -8q-3 -7 -3 -15q0 -13 9.5 -22.5t23.5 -9.5q8 0 15 3l224 223q4 3 4 7t-3 6z" />
    <glyph glyph-name="uniE644" unicode="&#xe644;" 
d="M990 651q0 40 -28 68.5t-68 28.5h-764q-40 0 -68 -28.5t-28 -68.5v-540q0 -40 28 -68.5t68 -28.5h764q40 0 68 28.5t28 68.5v282v1v1v1v1v254zM95 647q0 16 11.5 27.5t28.5 11.5h754q17 0 28.5 -11.5t11.5 -27.5v-22h-834v22zM95 564h834v-57h-834v57zM929 116
q0 -17 -11.5 -28.5t-28.5 -11.5h-754q-17 0 -28.5 11.5t-11.5 28.5v330h834v-49v-1v-2v-1v-277zM784 266v-155h33v55h31q58 0 59 52q-3 46 -57 48h-66zM873 217q0 -23 -28 -24h-28v45h28q27 0 28 -21zM725 266h32v-155h-32v155zM638 150q-10 26 -42 113l-1 3h-35l62 -155h31
l62 155h-36l-1 -3q-31 -87 -40 -113zM172 240q-9 0 -15 -6t-6 -14v-62q0 -9 6 -15t15 -6h62q8 0 14 6t6 14v63q0 8 -6 14t-14 6h-62z" />
    <glyph glyph-name="uniE645" unicode="&#xe645;" 
d="M512 400q135 0 245.5 27.5t173 75.5t62.5 107t-62.5 107.5t-173 75.5t-245.5 27t-245.5 -27t-173 -75.5t-62.5 -107.5t62.5 -107t173 -75.5t245.5 -27.5zM98 610q0 23 29.5 48t81 46.5t131.5 35.5t172 14t172 -14t131.5 -35.5t81 -46.5t29.5 -48t-29.5 -48t-81 -46.5
t-131.5 -35t-172 -13.5t-172 13.5t-131.5 35t-81 46.5t-29.5 48zM947 247q0 1 -1 1q-9 7 -20 7q-12 0 -21.5 -9t-9.5 -22q0 -12 9 -21l1 -1q22 -23 22 -45q0 -24 -29.5 -49t-81 -46.5t-132 -35.5t-172.5 -14t-172.5 14t-132 35.5t-81 46.5t-29.5 49q0 25 22 45h1q0 1 1 1
q0 1 1 2q7 8 7 19q0 13 -9 22t-22 9q-12 0 -21 -7q0 -1 -1 -1q-43 -43 -43 -90q0 -59 62 -107t172 -75.5t245 -27.5t245 27.5t172 75.5t62 107q0 47 -42 89h-1zM946 477q-9 7 -20 7q-12 0 -21.5 -9t-9.5 -22q0 -12 9 -22q1 0 1 -1q22 -22 22 -45t-29.5 -48t-81 -46.5
t-132 -35.5t-172.5 -14t-172.5 14t-132 35.5t-81 46.5t-29.5 48q0 26 22 45q0 1 1 2h1q0 1 1 1q7 9 7 20q0 13 -9 22t-22 9q-12 0 -21 -7q0 -1 -1 -2q-43 -42 -43 -90q0 -58 62 -106t172 -75.5t245 -27.5t245 27.5t172 75.5t62 106q0 48 -43 91q-1 1 -2 1z" />
    <glyph glyph-name="uniE646" unicode="&#xe646;" 
d="M719 402q-93 0 -159 -66t-66 -159t66 -159t159 -66t159 66t66 159t-66 159t-159 66zM718.5 -2q-74.5 0 -127 52.5t-52.5 127t52.5 127t127 52.5t127 -52.5t52.5 -127t-52.5 -127t-127 -52.5zM846 179l-112 111q-6 7 -15 7t-16 -7l-112 -111q-6 -7 -6 -16t6 -16
q7 -6 16 -6t15 6l75 75v-142q0 -10 6.5 -16t15.5 -6t15.5 6t6.5 16v142l74 -75q6 -6 15.5 -6t16 6.5t6.5 15.5t-7 16zM262 566q0 -42 29.5 -71.5t71 -29.5t71 29.5t29.5 71.5t-29.5 71.5t-71 29.5t-71 -29.5t-29.5 -71.5zM409 566q0 -19 -13.5 -33t-33 -14t-33 14t-13.5 33
t13.5 33t33 14t33 -14t13.5 -33zM472 42h-50h-145l169 169q2 1 2 2q8 8 8 19t-8 19l-35 35q0 1 -1 1l-70 70q-31 31 -76 31t-77 -31l-55 -55v405q0 23 16 38.5t38 15.5h612q22 0 38 -15.5t16 -38.5v-282q0 -12 8 -19.5t19 -7.5t19 7.5t8 19.5v71v211q0 45 -32 76.5t-76 31.5
h-612q-44 0 -76 -31.5t-32 -76.5v-611q0 -44 32 -76t76 -32h284q11 0 19 8t8 19t-8 19t-19 8zM134 96v130l94 93q15 16 37.5 16t38.5 -16l87 -87l-190 -190h-13q-22 0 -38 16t-16 38z" />
    <glyph glyph-name="uniE647" unicode="&#xe647;" 
d="M998 415l-434 429q-5 5 -13 11q-17 11 -36 11q-21 0 -37 -11q-9 -6 -13 -12l-434 -428q-11 -11 -11 -27t11 -27q22 -22 53 9l29 28l403 391l2 -3l428 -420q20 -13 34 -13q10 0 18 8q11 11 11.5 27t-11.5 27zM836.5 438q-13.5 0 -23 -9.5t-9.5 -23.5v-399q0 -17 -12 -28.5
t-29 -11.5h-99v223q0 41 -29.5 70t-71.5 29h-97q-42 0 -71 -29t-29 -70v-223h-100q-17 0 -28.5 11.5t-11.5 28.5v399q0 14 -9.5 23.5t-23 9.5t-23 -9.5t-9.5 -23.5v-404q0 -41 29.5 -70t70.5 -29h170v282q0 16 11.5 28t28.5 12h88q16 0 28 -12t12 -28v-282h169q42 0 71.5 29
t29.5 70v404q0 14 -9.5 23.5t-23 9.5z" />
    <glyph glyph-name="uniE648" unicode="&#xe648;" 
d="M512 832q-185 0 -316.5 -131.5t-131.5 -316.5t131.5 -316.5t316.5 -131.5t316.5 131.5t131.5 316.5t-131.5 316.5t-316.5 131.5zM695 246q9 -9 9 -22.5t-9.5 -23t-22.5 -9.5t-23 10l-137 138l-138 -137q-10 -9 -23 -9t-22.5 9.5t-9.5 22.5t10 23l138 136l-138 138
q-9 9 -9 22.5t9.5 23t22.5 9.5t23 -10l137 -138l138 137q10 9 23 9t22.5 -9.5t9.5 -22.5t-10 -23l-138 -136z" />
    <glyph glyph-name="uniE649" unicode="&#xe649;" 
d="M950 88zM875 872h-744q-42 0 -71 -29.5t-29 -70.5v-745q0 -41 29 -70.5t71 -29.5h744q42 0 71 29.5t29 70.5v745q0 41 -29 70.5t-71 29.5zM913 104v-72q0 -18 -12.5 -30t-29.5 -12h-736q-17 0 -29.5 12t-12.5 30v735q0 17 12.5 29.5t29.5 12.5h736q17 0 29.5 -12.5
t12.5 -29.5v-663zM765 513l-214 -239l-152 108q-10 10 -25 10h-1h-2q-14 0 -25 -10l-154 -206q-10 -10 -10 -24.5t10 -24.5t24.5 -10t24.5 11l139 185l151 -107q10 -10 25 -10t25 10l232 259q10 10 10 24t-10 24q-9 10 -23.5 10t-24.5 -10zM346.5 488q36.5 0 62.5 26
t26 62.5t-26 62t-62.5 25.5t-62 -25.5t-25.5 -62t25.5 -62.5t62 -26zM346.5 602q10.5 0 18 -7.5t7.5 -18t-7.5 -18t-18 -7.5t-18 7.5t-7.5 18t7.5 18t18 7.5z" />
    <glyph glyph-name="uniE64A" unicode="&#xe64a;" 
d="M512 -64q-185 0 -316.5 131.5t-131.5 316.5t131.5 316.5t316.5 131.5t316.5 -131.5t131.5 -316.5t-131.5 -316.5t-316.5 -131.5zM512 768q-104 0 -192.5 -51.5t-140 -140t-51.5 -192.5t51.5 -192.5t140 -140t192.5 -51.5t192.5 51.5t140 140t51.5 192.5t-51.5 192.5
t-140 140t-192.5 51.5zM557 383l138 136q10 10 10 23t-9.5 22.5t-22.5 9.5t-23 -9l-138 -137l-137 137q-9 9 -22 9t-22.5 -9t-9.5 -22.5t9 -22.5l136 -137l-137 -136q-9 -9 -9.5 -22.5t9 -23t22.5 -9.5q14 0 23 10l138 136l138 -140q10 -9 23 -9t22.5 9.5t9.5 22.5t-9 23z
" />
    <glyph glyph-name="uniE64B" unicode="&#xe64b;" 
d="M910 208v0q19 128 -61 239q-39 53 -60 97t-26 64.5t-9 53.5l-1 8q-2 20 -21 27q-19 8 -34 -6q-75 -65 -88 -179q-25 54 -39.5 107.5t-17 101.5t-2 73t3.5 58q2 19 -12.5 30.5t-31.5 4.5q-60 -21 -104 -57.5t-69 -82t-40 -94t-18 -103t-0.5 -99.5t9.5 -91q-29 25 -53 62.5
t-36 67.5q-9 20 -32 21q-24 -1 -31 -23q-3 -7 -7 -21t-10.5 -53t-9 -79t4 -93.5t23.5 -101t54 -97.5t91 -87q125 -77 249 -77q292 13 369 286q5 15 9 43zM533 -54q-106 0 -213 66q-139 97 -144 282q-1 43 6 88q67 -101 146 -116q18 -3 30 10t9 30l-1 6q-7 33 -12 68t-8 84.5
t3 95.5t19.5 91.5t43.5 85t72 64.5q-7 -232 127 -427q14 -20 38 -13q24 8 24 32v9q0 45 1 68.5t7 57.5t19 58q21 -77 94 -178q62 -86 50 -185q-26 -132 -79 -187q-12 -10 -24 -19q-9 -5 -15 -10q-90 -61 -193 -61v0z" />
    <glyph glyph-name="uniE64C" unicode="&#xe64c;" 
d="M637 462q7 11 3.5 24t-15 19.5t-24 3.5t-19.5 -15q-19 -33 -67.5 -56t-97 -23t-97 23.5t-67.5 56.5q-7 11 -19.5 14.5t-24 -3t-15 -19.5t3.5 -24q29 -52 93.5 -82t126.5 -30q60 0 124.5 30t94.5 81zM704 192q40 0 68 28t28 68v416q0 40 -28 68t-68 28h-576q-40 0 -68 -28
t-28 -68v-416q0 -40 28 -68t68 -28v-160q0 -22 20 -30q6 -2 12 -2q14 0 23 10l171 182h350zM193 220v2v2q0 13 -9 22.5t-23 9.5h-33q-13 0 -22.5 9.5t-9.5 22.5v416q0 13 9.5 22.5t22.5 9.5h576q13 0 22.5 -9.5t9.5 -22.5v-416q0 -13 -9.5 -22.5t-22.5 -9.5h-364h-1
q-3 0 -9 -2h-1q-1 0 -2 -1q-2 -1 -7 -5h-1l-2 -2h-1l-124 -133zM896 608q-13 0 -22.5 -9.5t-9.5 -23t9.5 -22.5t23 -9t22.5 -9.5t9 -22.5v-352q0 -14 -9 -23t-23 -9h-32q-13 0 -22.5 -9.5t-9.5 -22.5v-1v0v-50l-73 73q-9 10 -23 10h-160q-13 0 -22.5 -9.5t-9.5 -22.5
t9.5 -22.5t22.5 -9.5h147l118 -119q9 -10 23 -10q6 0 12 3q19 8 20 29v97q40 0 68 28t28 68v352q0 39 -28 67.5t-68 28.5z" />
    <glyph glyph-name="uniE64D" unicode="&#xe64d;" 
d="M512 -62q-90 0 -171.5 33.5t-145 97t-97.5 145t-34 170.5t34 170.5t97.5 145t145 97t171.5 33.5t171.5 -33.5t145 -97t97.5 -145t34 -170.5t-34 -170.5t-97.5 -145t-145 -97t-171.5 -33.5zM512 766q-77 0 -147 -29t-124.5 -83t-83.5 -123.5t-29 -146.5t29 -146.5
t83.5 -123.5t124.5 -83t147 -29t147 29t124.5 83t83.5 124t29 146.5t-29 146t-83.5 123.5t-124.5 83t-147 29zM736 416h-192v192q0 13 -9.5 22.5t-22.5 9.5t-22.5 -9.5t-9.5 -22.5v-192h-192q-13 0 -22.5 -9.5t-9.5 -22.5t9.5 -22.5t22.5 -9.5h192v-192q0 -13 9.5 -22.5
t22.5 -9.5t22.5 9.5t9.5 22.5v192h192q13 0 22.5 9.5t9.5 22.5t-9.5 22.5t-22.5 9.5z" />
    <glyph glyph-name="uniE64E" unicode="&#xe64e;" 
d="M923 106v1v-1zM512 854q-98 0 -185 -37.5t-149.5 -101t-99.5 -152.5t-37 -188q0 -51 9 -94l1 -2q1 -4 2 -9q3 -13 6 -23l2 -5l1 -2v-1q8 -28 18 -52t18.5 -38.5t15.5 -25t11 -15.5l4 -4v-2v-2q7 -82 -18 -134q-3 -8 -3 -15q-2 -13 5 -23q8 -11 22 -13q1 0 3 -1h3
q5 0 10 2q23 5 65 23.5t69 37.5q106 -58 227 -58q95 0 182.5 37t150.5 99.5t100.5 149t37.5 181.5t-37.5 181.5t-100.5 149.5t-150.5 100t-182.5 37zM512 -20q-119 0 -221 65q-22 8 -41 -7q-31 -29 -67 -46q9 74 8 88q1 5 -1 20t-8 27q-50 67 -65 136v2q-2 8 -5 26
q-9 59 -9 84q0 113 54 209t146.5 152t201.5 56h7q113 -1 207 -55.5t148 -147t54 -203.5q0 -110 -55 -203.5t-149 -148t-205 -54.5zM386 490q-27 -2 -27 -27v-66h-96v66q-1 25 -26 27q-25 -2 -25 -27v-182q0 -24 25 -24t26 24v68h96v-68q0 -24 27 -24q24 0 25 24v182
q-1 25 -25 27zM538 491q-104 -9 -111 -119q6 -111 111 -116q104 5 112 116q-9 110 -112 119zM538 300q-56 3 -58 72q2 68 58 72q55 -4 60 -72q-4 -69 -60 -72zM789 487h-119q-19 -1 -20 -23q1 -24 21 -24h33v-159q0 -24 25 -24q24 0 27 24v159h33q22 0 23 25q-3 21 -23 22z
" />
    <glyph glyph-name="uniE64F" unicode="&#xe64f;" 
d="M950 88zM512 889q-105 0 -198.5 -40t-161 -108.5t-107 -164t-39.5 -202.5q0 -54 9 -101l1 -1v-1q1 -5 2 -9q4 -13 7 -25l1 -5q1 -1 1.5 -2t0.5 -2q14 -47 32.5 -83.5t28.5 -49t11 -12.5q0 -4 1 -4q7 -89 -20 -145q-3 -8 -3 -16q-3 -13 5 -24q9 -12 23 -15h4h3q6 0 10 1
q26 6 71 26t74 40q114 -62 244 -62q103 0 196.5 40t161.5 107t108 160t40 195.5t-40 195.5t-108 160.5t-161.5 107t-196.5 39.5zM512 -50q-128 0 -238 69q-23 10 -43 -7q-34 -31 -73 -50q10 80 9 95q1 6 -1 21.5t-9 29.5q-53 71 -70 146v2q-2 9 -5 28q-9 63 -9 90
q0 122 57.5 225.5t157.5 163.5t217 60h7q121 -2 222 -60t159.5 -158t58.5 -218q0 -89 -35 -170t-94 -139.5t-140.5 -93t-170.5 -34.5zM281 479q-38 0 -53 -24q-5 21 -26 22q-29 -3 -29 -33v-153q1 -30 29 -30q26 0 27 30v100q2 38 37 41q33 -3 36 -41v-100q2 -30 27.5 -30
t28.5 30v111q-4 72 -77 77zM579 374q-12 95 -100 105q-93 -10 -101 -111q5 -105 105 -108q81 5 91 45q-3 22 -22 25q-8 0 -23 -9q-25 -14 -41 -14q-46 1 -54 42h121q24 -2 24 25zM433 387q6 42 46 45q36 -2 44 -45h-90zM854 477q-21 -1 -26 -23l-33 -110l-34 108
q-7 25 -27 25q-23 0 -29 -25l-33 -108l-32 110q-6 22 -28 23q-26 -1 -27 -23q-2 -7 0 -14q1 -7 6 -14l47 -138q9 -27 33.5 -27t32.5 25l28 93h2l29 -93q6 -25 32 -25q23 0 33 27l49 139q5 13 5 22q-2 27 -28 28z" />
    <glyph glyph-name="uniE650" unicode="&#xe650;" 
d="M509.5 248q14.5 0 24.5 10t10 24v309q0 14 -10 24t-24.5 10t-24.5 -10t-10 -24v-309q0 -14 10 -24t24.5 -10zM509.5 179q-21.5 0 -36.5 -15t-15 -36.5t15 -36.5t36.5 -15t36.5 15t15 36.5t-15 36.5t-36.5 15zM971 109l-365 654q-37 66 -96.5 66t-97.5 -66l-364 -654
q-37 -66 -6.5 -118t106.5 -52h723q76 0 106.5 52t-6.5 118zM918.5 25.5q-10.5 -18.5 -47.5 -18.5h-723q-37 0 -47.5 18.5t7.5 50.5l364 653q18 32 37 32t37 -32l365 -653q18 -32 7.5 -50.5z" />
    <glyph glyph-name="uniE651" unicode="&#xe651;" 
d="M512 843q-93 0 -178 -36.5t-146.5 -98t-98 -146.5t-36.5 -178t36.5 -178t98 -146.5t146.5 -98t178 -36.5t178 36.5t146.5 98t98 146.5t36.5 178t-36.5 178t-98 146.5t-146.5 98t-178 36.5zM512 -18q-109 0 -201.5 54t-146.5 146.5t-54 201.5t54 201.5t146.5 146.5
t201.5 54t201.5 -54t146.5 -146.5t54 -201.5t-54 -201.5t-146.5 -146.5t-201.5 -54zM512 491q-44 0 -75.5 -31.5t-31.5 -75.5t31.5 -75.5t75.5 -31.5t75.5 31.5t31.5 75.5t-31.5 75.5t-75.5 31.5zM512 334q-21 0 -35.5 14.5t-14.5 35.5t14.5 35.5t35.5 14.5t35.5 -14.5
t14.5 -35.5t-14.5 -35.5t-35.5 -14.5zM181 351q5 0 9 5t4 12v16q0 6 -4.5 10t-10 4t-10 -4.5t-4.5 -10.5q0 -9 1 -17q0 -6 4 -10.5t10 -4.5h1zM355 107q-62 35 -103.5 93.5t-53.5 129.5q-1 5 -5.5 8.5t-10.5 2.5t-9.5 -5.5t-2.5 -10.5q14 -77 58.5 -140.5t112.5 -102.5
q3 -2 7 -2q9 0 13 7q7 13 -6 20zM328 197q6 0 10 4q10 10 0 20q-57 58 -57 140q0 6 -4.5 10t-10 4t-10 -4t-4.5 -10q0 -93 66 -160q4 -4 10 -4zM382 187q-6 4 -12 7q-11 8 -19 -4t4 -19q6 -5 13 -9q3 -2 7 -2q8 0 12 8q7 12 -5 19zM401 270q-20 11 -31.5 31.5t-11.5 43.5
q0 6 -4.5 10t-10.5 4t-10 -4t-4 -10q0 -31 15.5 -58t42.5 -42q3 -2 7 -2q9 0 13 8q7 12 -6 19zM711 679q-11 8 -19.5 -3.5t3.5 -19.5q69 -51 103 -130t24 -164q0 -6 3.5 -10.5t9.5 -5.5h2q12 0 14 12q11 93 -26.5 179.5t-113.5 141.5zM679 595q-12 9 -20.5 -2.5t3.5 -20.5
q43 -32 64.5 -81.5t15.5 -102.5q-1 -6 3 -11t9 -5h2q13 0 14 12q7 61 -17.5 118t-73.5 93zM646 524q-11 8 -19.5 -3.5t2.5 -19.5q19 -14 28.5 -35.5t6.5 -44.5q-1 -6 2.5 -10.5t9.5 -5.5h2q13 0 14 13q4 31 -8.5 59t-37.5 47z" />
    <glyph glyph-name="uniE652" unicode="&#xe652;" 
d="M540 646q-7 11 -20 15q-6 3 -13 3h-1h-1h-2q-7 0 -13 -3q-13 -4 -20 -15l-289 -290q-10 -10 -10 -25q0 -18 12 -30q13 -13 30 -13q15 0 26 11v1h1l2 2l222 222l1 -534q-1 -2 0 -4v-1q0 -15 11.5 -25.5t28.5 -10.5t29 10.5t12 25.5v539l222 -222q1 -1 3 -2l1 -1
q10 -11 26 -11t29 13q12 12 12.5 28t-10.5 27zM939 819h-868q-15 0 -26 -11t-11 -26t11 -25.5t26 -10.5h868q16 0 26.5 10.5t10.5 25.5t-10.5 26t-26.5 11z" />
    <glyph glyph-name="uniE653" unicode="&#xe653;" 
d="M950 88zM352 621q11 -4 22 -4q3 -1 5 -1q41 0 71 37.5t34 93.5q3 49 -17 87.5t-54 50.5q-10 4 -22 5q-45 2 -78 -40q-28 -37 -32 -90q-3 -49 17 -88t54 -51zM386 829h1q3 0 6 -1q13 -5 23 -27t8 -50q-2 -32 -16.5 -53t-29.5 -21q-3 0 -6 1q-13 5 -22.5 27t-8.5 51
q3 35 20 57q12 16 25 16zM891 442q-16 28 -54 28q-20 0 -39 -10q16 11 25 26q18 28 15 56.5t-26 43.5q-13 8 -29 8q-37 0 -62 -35q8 11 13 22q18 35 12 69t-33 46q-11 6 -24 6q-40 0 -70 -43q0 1 0.5 2t1.5 1q14 40 3.5 74t-39.5 45q-9 3 -19 3q-26 0 -49 -20t-34 -53
q-14 -39 -4 -73.5t39 -45.5q9 -3 19 -3q39 0 67 41q-10 -26 -8 -50q4 -39 34 -54q2 -1 5 -2q10 -4 19 -4q34 0 63 34q-18 -28 -14.5 -56.5t25.5 -42.5q4 -3 7 -4l4 -2q9 -3 19 -3q14 0 31 8q-24 -16 -32.5 -40.5t2.5 -45.5q10 -17 30 -25q11 -3 23 -3q23 0 44 11
q24 14 35 37q14 29 0 54zM540 691q5 14 12.5 22.5t12.5 9.5q8 -13 -1 -41q-6 -14 -13.5 -22.5t-11.5 -9.5q-9 13 1 41zM657 581q-3 15 6.5 34t22.5 26q3 -14 -6 -34q-10 -19 -23 -26zM767.5 521.5q4.5 6.5 10.5 10.5q-1 -7 -5.5 -13.5t-9.5 -9.5q0 6 4.5 12.5zM817 401
q3 3 8 5l8 4q-3 -4 -7.5 -6t-8.5 -3zM636 495l-168 104l-4 1q-34 15 -69.5 12.5t-65.5 -19.5q-56 -32 -67 -94q-1 -21 -2 -31.5t4 -33t8 -33.5l9 -33q7 -23 10.5 -35.5t7 -31.5t2.5 -33.5t-6 -25.5q-7 -16 -18.5 -28.5t-20 -18.5t-26.5 -17q-20 -13 -31.5 -21t-28 -26
t-28.5 -40q-29 -58 -7 -116q25 -65 108 -94l2 -1q10 -2 20 -2q42 0 93.5 26.5t95.5 64t75.5 70.5t47.5 54q74 77 121 174q67 142 -62 228zM513 115q-63 -64 -136 -121.5t-106 -57.5q-4 0 -7 1q-57 21 -72 60q-13 32 4 66q8 15 20 27.5t20.5 19t25.5 17.5q21 13 32.5 21
t28 27t27.5 42q11 24 11 56t-5 53t-17 60q-22 75 -17 103q6 33 37 52q20 11 44 11q16 0 32 -5l168 -103q44 -29 53.5 -65.5t-13.5 -85.5q-47 -99 -127 -174l-4 -3z" />
    <glyph glyph-name="uniE654" unicode="&#xe654;" 
d="M627.5 149q-15.5 0 -26.5 -10.5t-11 -26.5v-125q0 -15 11 -26t26.5 -11t27 11t11.5 26v125q0 16 -11.5 26.5t-27 10.5zM505 766q-2 39 -29 67.5t-66 32.5v1h-274q-42 0 -73.5 -29.5t-33.5 -71.5v-259q0 -5 2 -9q6 -39 36 -64t69 -25h269h5q36 4 62 28.5t32 59.5q2 5 2 10
v259h-1zM441 755v-234q0 -20 -14 -34t-34 -14h-252q-20 0 -34 14t-14 34v234q0 20 14 34t34 14h252q20 0 34 -14t14 -34zM493 249q-2 38 -28.5 65.5t-64.5 32.5h-267q-41 0 -71.5 -28.5t-32.5 -69.5v-252q0 -5 2 -9q6 -38 35 -62.5t67 -24.5h262h5v1q35 3 60.5 27t30.5 58
q2 5 2 10v247v5zM430 238v-228q0 -19 -13.5 -33t-33.5 -14h-244q-20 0 -33.5 14t-13.5 33v228q0 19 13.5 33t33.5 14h244q20 0 33.5 -14t13.5 -33zM768.5 306q-15.5 0 -26.5 -10.5t-11 -25.5v-126q0 -15 11 -26t26.5 -11t26.5 11t11 26v126q0 15 -11 25.5t-26.5 10.5z
M995 769q-2 37 -28.5 65t-64.5 32v1h-240q-41 0 -71.5 -28.5t-32.5 -69.5v-253q0 -6 1 -10q7 -37 36 -61.5t67 -24.5h235h5q35 4 60.5 28t30.5 58q2 5 2 10v247v6zM932 758v-229q0 -19 -13.5 -33t-33.5 -14h-217q-20 0 -34 14t-14 33v229q0 19 14 32.5t34 13.5h217
q20 0 33.5 -13.5t13.5 -32.5zM907.5 306q-15.5 0 -27 -10.5t-11.5 -25.5v-63q0 -15 11.5 -26t27 -11t26.5 11t11 26v63q0 15 -11 25.5t-26.5 10.5zM907.5 118q-15.5 0 -27 -11t-11.5 -26v-94q0 -15 11.5 -26t27 -11t26.5 11t11 26v94q0 15 -11 26t-26.5 11zM768.5 86
q-15.5 0 -26.5 -10.5t-11 -25.5v-63q0 -15 11 -26t26.5 -11t26.5 11t11 26v63q0 15 -11 25.5t-26.5 10.5zM627.5 306q-15.5 0 -26.5 -10.5t-11 -25.5v-32q0 -15 11 -25.5t26.5 -10.5t27 10.5t11.5 25.5v32q0 15 -11.5 25.5t-27 10.5z" />
    <glyph glyph-name="uniE655" unicode="&#xe655;" 
d="M298 171q32 -32 32 -77.5t-32 -77.5t-77.5 -32t-77.5 32t-32 77.5t32 77.5t77.5 32t77.5 -32zM623 23q1 -16 -10 -27q-10 -12 -27 -12h-77q-14 0 -24.5 9.5t-11.5 23.5q-13 132 -106 223q-92 93 -223 106q-14 1 -23.5 11.5t-9.5 24.5v77q0 17 12 27q10 10 25 10h2
q92 -8 175 -46.5t148 -103.5t103.5 -148t46.5 -175zM915 22q1 -15 -10 -27q-11 -11 -27 -11h-81q-15 0 -25.5 10t-11.5 24q-7 122 -57 233q-50 110 -132.5 192.5t-192.5 132.5t-233 58q-14 0 -24 11t-10 25v82q0 15 11 26q11 10 26 10h1q150 -8 286 -68q137 -61 244 -168
t167 -244q61 -136 69 -286z" />
    <glyph glyph-name="uniE656" unicode="&#xe656;" 
d="M986.5 499q-6.5 20 -26.5 23l-289 44l-129 276q-9 20 -30 20q-22 0 -31 -20l-130 -275l-289 -43q-21 -4 -27.5 -23.5t8.5 -34.5l209 -215l-50 -304q-3 -21 14 -33.5t36 -2.5l258 142l258 -143q7 -4 16 -4h1q14 0 24 10t10 24q0 7 -2 12l-48 298l210 214q14 15 7.5 35z
" />
    <glyph glyph-name="uniE657" unicode="&#xe657;" 
d="M893 -78h-762q-33 0 -56.5 23.5t-23.5 56.5v762q0 33 23.5 56.5t56.5 23.5h762q33 0 56.5 -23.5t23.5 -56.5v-762q0 -33 -23.5 -56.5t-56.5 -23.5zM171 804h-40q-16 0 -28 -12t-12 -28v-120h80v160zM171 603h-80v-200h80v200zM171 363h-80v-201h80v201zM171 122h-80v-120
q0 -16 12 -28t28 -12h40v160zM813 363v441h-602v-842h602v160v241zM933 764q0 16 -12 28t-28 12h-40v-160h80v120zM933 603h-80v-200h80v200zM933 363h-80v-201h80v201zM933 122h-80v-160h40q16 0 28 12t12 28v120zM386 209q-6 -6 -14 -6t-14 5.5t-6 14.5v320q0 9 6 15t14 6
t14 -6l281 -160q6 -6 6 -14t-6 -14zM394 506v-5h-2v-244l219 126z" />
    <glyph glyph-name="uniE658" unicode="&#xe658;" 
d="M959 -39l-24 -24l-242 211l-151 -151v89l-328 328l-149 9l408 408l9 -149l328 -328h89l-151 -151zM439 639l-182 -183l328 -327l182 182z" />
    <glyph glyph-name="uniE659" unicode="&#xe659;" 
d="M863 415h-317v318q0 13 -9.5 22.5t-22.5 9.5t-22.5 -9.5t-9.5 -22.5v-318h-322q-14 0 -23 -9.5t-9.5 -22.5t9 -22.5t22.5 -9.5h323v-319q0 -14 9.5 -23t22.5 -9t22.5 9t9.5 23v319h317q13 0 22.5 9t9.5 22.5t-9 23t-23 9.5z" />
    <glyph glyph-name="uniE65A" unicode="&#xe65a;" 
d="M492 708h40v158h-33l-1 -5q-1 -7 -4.5 -11.5t-7.5 -7.5q-5 -3 -11 -4.5t-12 -1.5l-8 1v-34h37v-95zM944 311h-230q-7 0 -14 -1v298q0 28 -19.5 47.5t-46.5 19.5h-242q-28 0 -47.5 -19.5t-19.5 -47.5v-142q-7 1 -14 1h-230q-28 0 -47.5 -19.5t-19.5 -47.5v-431
q0 -27 19.5 -47t46.5 -20h866q27 0 46.5 20t19.5 47v275q0 28 -20 47.5t-48 19.5zM700 244q0 3 3 3h241q4 0 4 -3l1 -275q0 -3 -3 -3h-246v278zM388 608q0 3 4 3h242q3 0 3 -3v-642h-249v642zM78 400q0 3 3 3h241q4 0 4 -3l-1 -434h-245q-3 0 -3 3zM801 374q7 -8 19 -12
q11 -4 24 -4q11 0 22 3.5t19 10.5t13 17t5 23q0 14 -8 25q-4 5 -10 9q4 3 7 8q6 9 6 22q0 11 -5 20q-5 8 -13 14t-17 9q-23 7 -42 -1q-10 -4 -17.5 -11.5t-11.5 -18.5q-4 -10 -4 -22v-6h39v6q0 9 4 15q4 5 13 5q6 0 11 -4q4 -3 4 -10q0 -4 -2 -6q-2 -3 -5 -4q-4 -2 -9 -2
q-5 -1 -9 0h-6v-32h5q6 0 11 -1q5 0 10 -2q3 -1 5.5 -4t2.5 -10q0 -8 -5 -12q-6 -5 -14 -5q-5 0 -8 2q-4 1 -6 4q-3 3 -4 7.5t-2 9.5v6h-39v-6q0 -14 4 -24.5t13 -18.5zM241 535h-62q2 1 4 3q7 6 14 10q7 5 15 10.5t14 11.5q6 7 10 16t4 21t-4 22q-5 10 -12 16q-8 7 -18 10
q-24 9 -46 -1q-12 -5 -19 -14t-11 -21t-3 -25v-6h39v6q0 5 1 11q1 5 3 9t6 6q3 2 8 2q7 0 11.5 -4.5t4.5 -12.5q0 -5 -2 -9q-3 -5 -7 -8q-4 -4 -9 -7q-6 -4 -10 -7q-9 -6 -18 -13t-16 -15t-11 -18.5t-4 -23.5v-6h118v37z" />
    <glyph glyph-name="uniE65B" unicode="&#xe65b;" 
d="M736 -96h-448q-40 0 -68 28t-28 68v768q0 40 28 68t68 28h448q40 0 68 -28t28 -68v-768q0 -40 -28 -68t-68 -28zM288 800q-13 0 -22.5 -9.5t-9.5 -22.5v-768q0 -13 9.5 -22.5t22.5 -9.5h448q13 0 22.5 9.5t9.5 22.5v768q0 13 -9.5 22.5t-22.5 9.5h-448zM512 0
q-26 0 -45 18.5t-19 45t19 45.5t45 19t45 -19t19 -45.5t-19 -45t-45 -18.5zM512 64v-32v32zM704 160h-384q-13 0 -22.5 9.5t-9.5 22.5v544q0 13 9.5 22.5t22.5 9.5h384q13 0 22.5 -9.5t9.5 -22.5v-544q0 -13 -9.5 -22.5t-22.5 -9.5zM352 224h320v480h-320v-480z" />
    <glyph glyph-name="uniE65C" unicode="&#xe65c;" 
d="M980 438l-42 51q-17 22 -32 58t-18 64l-7 65q-4 29 -26 51t-51 26l-65 7q-28 3 -64 18t-58 32l-51 42q-22 17 -54 17t-54 -17l-51 -42q-22 -17 -58 -32t-64 -18l-66 -7q-28 -4 -50 -26t-26 -51l-7 -65q-3 -28 -18 -64t-33 -58l-41 -51q-17 -23 -17 -54.5t17 -53.5l41 -51
q18 -22 33 -58t18 -64l7 -66q3 -28 25.5 -50t50.5 -26l66 -7q28 -3 64 -18t58 -33l51 -41q22 -17 53.5 -17t54.5 17l51 41q22 18 58 33t64 18l65 7q29 3 51 25.5t26 50.5l7 66q3 28 18 64t32 58l42 51q17 23 17 54t-17 54zM694 117h-366q0 81 52 140q28 32 121 96
q47 33 71 59q35 39 35 83q0 43 -23 64q-23 20 -68 20q-49 0 -73 -33q-24 -30 -26 -93h-86q1 89 51 142q52 58 136 58q77 0 126 -45q48 -44 48 -114q0 -67 -51 -124q-28 -31 -109 -85q-80 -53 -97 -93h259v-75z" />
    <glyph glyph-name="uniE65D" unicode="&#xe65d;" 
d="M828.5 699.5q-63.5 63.5 -145 97t-171.5 33.5t-171.5 -33.5t-145 -97t-97.5 -145t-34 -170.5t34 -170.5t97.5 -145t145 -97t171.5 -33.5t171.5 33.5t145 97t97.5 145t34 170.5t-34 170.5t-97.5 145zM736 352h-192v-192q0 -13 -9.5 -22.5t-22.5 -9.5t-22.5 9.5t-9.5 22.5
v192h-192q-13 0 -22.5 9.5t-9.5 22.5t9.5 22.5t22.5 9.5h192v192q0 13 9.5 22.5t22.5 9.5t22.5 -9.5t9.5 -22.5v-192h192q13 0 22.5 -9.5t9.5 -22.5t-9.5 -22.5t-22.5 -9.5z" />
    <glyph glyph-name="uniE65E" unicode="&#xe65e;" 
d="M864 352h-701q-13 0 -22.5 9.5t-9.5 22.5t9.5 22.5t22.5 9.5h701q13 0 22.5 -9.5t9.5 -22.5t-9.5 -22.5t-22.5 -9.5z" />
    <glyph glyph-name="uniE65F" unicode="&#xe65f;" 
d="M512 830q-91 0 -173.5 -35.5t-142 -95t-95 -142t-35.5 -173.5t35.5 -173.5t95 -142t142 -95t173.5 -35.5t173.5 35.5t142 95t95 142t35.5 173.5t-35.5 173.5t-95 142t-142 95t-173.5 35.5zM544 160q0 -13 -9.5 -22.5t-22.5 -9.5t-22.5 9.5t-9.5 22.5v288q0 13 9.5 22.5
t22.5 9.5t22.5 -9.5t9.5 -22.5v-288zM512 544q-20 0 -34 14t-14 34t14 34t34 14t34 -14t14 -34t-14 -34t-34 -14z" />
    <glyph glyph-name="uniE660" unicode="&#xe660;" 
d="M980 438l-42 51q-17 22 -32 58t-18 64l-7 65q-4 29 -26 51t-51 26l-65 7q-28 3 -64 18t-58 32l-51 42q-22 17 -54 17t-54 -17l-51 -42q-22 -17 -58 -32t-64 -18l-66 -7q-28 -4 -50 -26t-26 -51l-7 -65q-3 -28 -18 -64t-33 -58l-41 -51q-17 -23 -17 -54.5t17 -53.5l41 -51
q18 -22 33 -58t18 -64l7 -66q3 -28 25.5 -50t50.5 -26l66 -7q28 -3 64 -18t58 -33l51 -41q22 -17 53.5 -17t54.5 17l51 41q22 18 58 33t64 18l65 7q29 3 51 25.5t26 50.5l7 66q3 28 18 64t32 58l42 51q17 23 17 54t-17 54zM652 160q-54 -48 -139 -48q-82 0 -131 42
q-55 46 -62 135h87q3 -51 33 -79q29 -25 73 -25q49 0 78 28q26 26 26 62q0 45 -27 66q-26 22 -77 22h-37v64h37q46 0 70 20t24 59q0 38 -22 58q-23 20 -68 20q-47 0 -72 -23q-26 -23 -31 -71h-84q6 81 59 124q49 44 127 44q80 0 129 -38q47 -39 47 -107q0 -86 -87 -114
q48 -15 71 -43q27 -30 27 -77q0 -73 -51 -119z" />
    <glyph glyph-name="uniE661" unicode="&#xe661;" 
d="M374 303h183v236h-2zM980 438l-42 51q-17 22 -32 58t-18 64l-7 65q-4 29 -26 51t-51 26l-65 7q-28 3 -64 18t-58 32l-51 42q-22 17 -54 17t-54 -17l-51 -42q-22 -17 -58 -32t-64 -18l-66 -7q-28 -4 -50 -26t-26 -51l-7 -65q-3 -28 -18 -64t-33 -58l-41 -51
q-17 -23 -17 -54.5t17 -53.5l41 -51q18 -22 33 -58t18 -64l7 -66q3 -28 25.5 -50t50.5 -26l66 -7q28 -3 64 -18t58 -33l51 -41q22 -17 53.5 -17t54.5 17l51 41q22 18 58 33t64 18l65 7q29 3 51 25.5t26 50.5l7 66q3 28 18 64t32 58l42 51q17 23 17 54t-17 54zM717 235h-78
v-113h-82v113h-253v81l256 331h79v-344h78v-68z" />
    <glyph glyph-name="uniE662" unicode="&#xe662;" 
d="M980 438l-42 51q-17 22 -32 58t-18 64l-7 65q-4 29 -26 51t-51 26l-65 7q-28 3 -64 18t-58 32l-51 42q-22 17 -54 17t-54 -17l-51 -42q-22 -17 -58 -32t-64 -18l-66 -7q-28 -4 -50 -26t-26 -51l-7 -65q-3 -28 -18 -64t-33 -58l-41 -51q-17 -23 -17 -54.5t17 -53.5l41 -51
q18 -22 33 -58t18 -64l7 -66q3 -28 25.5 -50t50.5 -26l66 -7q28 -3 64 -18t58 -33l51 -41q22 -17 53.5 -17t54.5 17l51 41q22 18 58 33t64 18l65 7q29 3 51 25.5t26 50.5l7 66q3 28 18 64t32 58l42 51q17 23 17 54t-17 54zM640 163q-57 -46 -135 -46q-72 0 -123 39
q-57 42 -62 116h84q6 -43 34 -64q25 -18 68 -18q47 0 78 28q32 30 32 77q0 53 -28 84q-25 30 -77 30q-36 0 -59 -12q-27 -13 -43 -40h-80l28 295h320v-75h-251l-14 -145h2q24 25 56 36q30 11 64 11q74 0 120 -49q48 -49 48 -134q0 -80 -62 -133z" />
    <glyph glyph-name="uniE663" unicode="&#xe663;" 
d="M514 400q-49 0 -75 -30q-27 -28 -27 -80q0 -50 29 -78.5t73 -28.5q45 0 74 31t29 79t-27 78q-29 29 -76 29zM980 438l-42 51q-17 22 -32 58t-18 64l-7 65q-4 29 -26 51t-51 26l-65 7q-28 3 -64 18t-58 32l-51 42q-22 17 -54 17t-54 -17l-51 -42q-22 -17 -58 -32t-64 -18
l-66 -7q-28 -4 -50 -26t-26 -51l-7 -65q-3 -28 -18 -64t-33 -58l-41 -51q-17 -23 -17 -54.5t17 -53.5l41 -51q18 -22 33 -58t18 -64l7 -66q3 -28 25.5 -50t50.5 -26l66 -7q28 -3 64 -18t58 -33l51 -41q22 -17 53.5 -17t54.5 17l51 41q22 18 58 33t64 18l65 7q29 3 51 25.5
t26 50.5l7 66q3 28 18 64t32 58l42 51q17 23 17 54t-17 54zM649 163q-54 -51 -132 -51q-96 0 -147 69q-50 68 -50 189q0 130 53 208q53 80 145 80q153 0 174 -144h-84q-16 73 -91 73q-53 0 -83 -52q-31 -48 -31 -121v-7h4q21 33 55 48q29 15 71 15q76 0 123 -50
q46 -49 46 -127q0 -79 -53 -130z" />
    <glyph glyph-name="uniE664" unicode="&#xe664;" 
d="M980 438l-42 51q-17 22 -32 58t-18 64l-7 65q-4 29 -26 51t-51 26l-65 7q-28 3 -64 18t-58 32l-51 42q-22 17 -54 17t-54 -17l-51 -42q-22 -17 -58 -32t-64 -18l-66 -7q-28 -4 -50 -26t-26 -51l-7 -65q-3 -28 -18 -64t-33 -58l-41 -51q-17 -23 -17 -54.5t17 -53.5l41 -51
q18 -22 33 -58t18 -64l7 -66q3 -28 25.5 -50t50.5 -26l66 -7q28 -3 64 -18t58 -33l51 -41q22 -17 53.5 -17t54.5 17l51 41q22 18 58 33t64 18l65 7q29 3 51 25.5t26 50.5l7 66q3 28 18 64t32 58l42 51q17 23 17 54t-17 54zM688 578l-183 -456h-91l188 447h-268v78h354v-69z
" />
    <glyph glyph-name="uniE665" unicode="&#xe665;" 
d="M980 438l-41 51q-18 22 -33 58t-18 64l-7 65q-3 29 -25.5 51t-50.5 26l-66 7q-28 3 -64 18t-58 32l-51 42q-22 17 -53.5 17t-53.5 -17l-52 -41q-23 -17 -58.5 -32t-63.5 -19l-66 -7q-28 -3 -50.5 -25.5t-25.5 -50.5l-7 -66q-4 -28 -18.5 -63.5t-32.5 -57.5l-41 -52
q-18 -22 -18 -53.5t18 -53.5l41 -52q18 -22 32.5 -57.5t18.5 -63.5l7 -66q4 -28 26 -50.5t51 -26.5l65 -7q28 -3 64 -18t58 -32l51 -42q22 -17 54 -17t54 17l51 42q22 17 58 32t64 18l66 7q28 4 50 26t26 51l7 65q3 28 18 64t33 58l41 51q17 23 17 54t-17 54zM654 160
q-51 -42 -142 -42q-92 0 -142 42q-50 43 -50 112q0 48 29 84q26 33 62 43v1q-37 15 -57 44q-17 26 -17 66q0 58 44 97q48 43 131 43q82 0 131 -43q44 -40 44 -97q0 -39 -17 -66q-20 -29 -57 -44v-1q37 -11 62 -43q29 -38 29 -84q0 -68 -50 -112zM594 336q-28 27 -82 27
t-82 -25q-27 -25 -27 -66q0 -39 29 -63q27 -24 80 -24q51 0 82 25q27 24 27 61q0 41 -27 65zM512 426q54 0 77 25q19 21 19 56q0 31 -24 53q-27 24 -72 24q-46 0 -72 -24q-24 -22 -24 -53q0 -36 19 -56q25 -25 77 -25z" />
    <glyph glyph-name="uniE666" unicode="&#xe666;" 
d="M512 819q-89 0 -169.5 -34.5t-138.5 -92.5t-92.5 -138.5t-34.5 -169.5t34.5 -169.5t92.5 -138.5t138.5 -92.5t169.5 -34.5t169.5 34.5t138.5 92.5t92.5 138.5t34.5 169.5t-34.5 169.5t-92.5 138.5t-138.5 92.5t-169.5 34.5zM574 146h-43v203h43v-203zM758 245
q-17 -25 -53 -25h-49v-74h-43v203h93q30 0 46.5 -17t16.5 -48q0 -21 -11 -39zM294 146v436h-39v40h158v-198l199 198h157zM718 307.5q-9 6.5 -28 6.5h-34v-59h39q21 0 28 12q4 7 4 19q0 15 -9 21.5z" />
    <glyph glyph-name="uniE667" unicode="&#xe667;" horiz-adv-x="1088" 
d="M559 393l47 329q-25 11 -44 23q-137 84 -311 47l-52 -346q199 45 360 -53zM943 400l40 324q-25 -11 -54 -20t-71 -17t-92 -4.5t-97 20.5l-47 -326q46 -25 95.5 -31.5t93 3.5t74 22.5t58.5 28.5zM548 321q-48 29 -101 45t-101 17t-83.5 -2.5t-68.5 -11.5l-48 -303
q34 15 87.5 20.5t130.5 -5t148 -40.5l38 278l-2 1v1zM894 -24l42 339q-94 -47 -186 -47q-71 0 -135 30l-37 -275q2 -1 5.5 -2.5t5.5 -2.5q137 -82 305 -42v0z" />
    <glyph glyph-name="uniE668" unicode="&#xe668;" horiz-adv-x="1076" 
d="M656 -45v48v246q43 15 69.5 52t26.5 83t-26.5 83t-69.5 52v294q107 -12 195 -71.5t138.5 -154t50.5 -203.5t-50.5 -203.5t-138.5 -154t-195 -71.5zM704 755v-206q44 -25 70 -69t26 -96t-26 -96t-70 -69v-206q126 32 207 135t81 236t-81 236t-207 135zM32 0v768
q0 40 28 68t68 28h480v-960h-480q-40 0 -68 28t-28 68zM560 -48v864h-432q-20 0 -34 -14t-14 -34v-768q0 -20 14 -34t34 -14h432zM200 192h240q10 0 17 -7t7 -17t-7 -17t-17 -7h-240q-10 0 -17 7t-7 17t7 17t17 7zM464 168zM176 168zM200 96h240q10 0 17 -7t7 -17t-7 -17
t-17 -7h-240q-10 0 -17 7t-7 17t7 17t17 7zM464 72zM176 72z" />
    <glyph glyph-name="uniE669" unicode="&#xe669;" 
d="M512 -62q-91 0 -173.5 35.5t-142 95t-95 142t-35.5 173.5t35.5 173.5t95 142t142 95t173.5 35.5t173.5 -35.5t142 -95t95 -142t35.5 -173.5t-35.5 -173.5t-95 -142t-142 -95t-173.5 -35.5zM512 766q-104 0 -192 -51t-139 -139t-51 -192t51 -192t139 -139t192 -51t192 51
t139 139t51 192t-51 192t-139 139t-192 51zM464 592q0 -20 14 -34t34 -14t34 14t14 34t-14 34t-34 14t-34 -14t-14 -34zM512 128q-13 0 -22.5 9.5t-9.5 22.5v288q0 13 9.5 22.5t22.5 9.5t22.5 -9.5t9.5 -22.5v-288q0 -13 -9.5 -22.5t-22.5 -9.5z" />
    <glyph glyph-name="uniE66A" unicode="&#xe66a;" 
d="M326 437q0 62 36 97l177 177q35 35 88 35t88 -35q40 -40 40 -88.5t-40 -88.5l-176 -177q-36 -35 -89 -35l-71 -71q36 -17 71 -17q43 0 78 15.5t72 46.5l177 176q60 60 60 146t-60 146t-146 60t-146 -60l-176 -177q-46 -39 -60 -100.5t7 -120.5zM698 331q0 -62 -36 -97
l-177 -177q-35 -35 -88 -35t-88 35q-40 40 -40 88.5t40 88.5l176 177q36 35 98 35l70 71q-11 2 -28.5 7.5t-28 7.5t-22.5 2q-89 0 -150 -62l-177 -176q-60 -60 -60 -146t60 -146t146 -60t146 60l176 177q47 46 59 107t-15 114z" />
    <glyph glyph-name="uniE66B" unicode="&#xe66b;" 
d="M988 417q-8 85 -56.5 157t-123.5 113q-13 7 -27.5 1.5t-19.5 -20.5q-1 -5 -1.5 -9.5t0 -7.5t3.5 -7l5 -6q1 -2 5.5 -5.5t6.5 -5t7.5 -5t6.5 -4.5q62 -39 96 -102q35 -66 33.5 -141.5t-40.5 -138.5q-38 -63 -102.5 -99.5t-137.5 -36.5h-130q-21 0 -29.5 -20.5t6.5 -35.5
l91 -91q14 -14 32 -8t22.5 22.5t-7.5 32.5l-35 34h50q99 0 183 53.5t128 142t34 187.5zM643 663q4 0 15.5 -1t17 -0.5t13.5 3.5t13 11q11 15 3 32t-27 19q-15 4 -35 2t-29 -17q-9 -16 0.5 -32.5t28.5 -16.5zM355 102q-111 11 -184.5 97t-68 197t88 189t192.5 78h130
q22 0 30.5 20.5t-7.5 35.5l-91 91q-14 14 -32 8t-22.5 -22.5t8.5 -31.5l34 -35h-50q-76 0 -145 -33.5t-116 -87.5t-70 -127t-12 -149t54 -141.5t109 -105.5q67 -41 145 -49q20 -2 30 13.5t3.5 33t-26.5 19.5zM609 244h-162v31h63v215l-65 -19v33l100 29v-258h64v-31z" />
    <glyph glyph-name="uniE66C" unicode="&#xe66c;" 
d="M512 -53q-88 0 -169 35t-139.5 93.5t-93.5 139.5t-35 169t35 169t93.5 139.5t139.5 93.5t169 35t169 -35t139.5 -93.5t93.5 -139.5t35 -169t-35 -169t-93.5 -139.5t-139.5 -93.5t-169 -35zM512 755q-100 0 -185.5 -50t-135.5 -135.5t-50 -185.5t50 -185.5t135.5 -135.5
t185.5 -50t185.5 50t135.5 135.5t50 185.5t-50 185.5t-135.5 135.5t-185.5 50zM381 420q0 -15 -12 -25.5t-24 -10.5q-17 0 -27 10t-10 26v66q0 16 10 26t27 10q16 0 26 -10t10 -26v-66zM716 420q0 -16 -10 -26t-27 -10q-16 0 -26 10t-10 26v66q0 16 10 26t26 10q17 0 27 -10
t10 -26v-66zM366.5 180q-14.5 0 -21.5 7q-11 11 -11 25.5t11 25.5q27 33 72.5 53t94.5 20q48 0 94.5 -19.5t80.5 -53.5q11 -11 11 -25.5t-11 -25.5t-25.5 -11t-25.5 11q-51 54 -124 52.5t-124 -52.5q-7 -7 -21.5 -7z" />
    <glyph glyph-name="uniE66D" unicode="&#xe66d;" 
d="M512 -53q-88 0 -169 35t-139.5 93.5t-93.5 139.5t-35 169t35 169t93.5 139.5t139.5 93.5t169 35t169 -35t139.5 -93.5t93.5 -139.5t35 -169t-35 -169t-93.5 -139.5t-139.5 -93.5t-169 -35zM512 755q-100 0 -185.5 -50t-135.5 -135.5t-50 -185.5t50 -185.5t135.5 -135.5
t185.5 -50t185.5 50t135.5 135.5t50 185.5t-50 185.5t-135.5 135.5t-185.5 50zM381 420q0 -15 -12 -25.5t-24 -10.5q-17 0 -27 10t-10 26v66q0 16 10 26t27 10q16 0 26 -10t10 -26v-66zM716 420q0 -16 -10 -26t-27 -10q-16 0 -26 10t-10 26v66q0 16 10 26t26 10q17 0 27 -10
t10 -26v-66zM658 311q14 0 21 -7q11 -11 11 -25.5t-11 -25.5q-62 -73 -174 -73q-49 0 -95.5 20t-79.5 53q-11 11 -11 25.5t11 25.5q38 13 58 -7q51 -54 124 -52.5t124 52.5q14 14 22 14z" />
    <glyph glyph-name="uniE66E" unicode="&#xe66e;" 
d="M988 417q-8 85 -56.5 157t-123.5 113q-13 7 -27.5 1.5t-19.5 -20.5q-1 -5 -1.5 -9.5t0 -7.5t3.5 -7l5 -6q1 -2 5.5 -5.5t6.5 -5t7.5 -5t6.5 -4.5q62 -39 96 -102q35 -66 33.5 -141.5t-40.5 -138.5q-38 -63 -102.5 -99.5t-137.5 -36.5h-130q-21 0 -29.5 -20.5t6.5 -35.5
l91 -91q14 -14 32 -8t22.5 22.5t-7.5 32.5l-35 34h50q99 0 183 53.5t128 142t34 187.5zM643 663q4 0 15.5 -1t17 -0.5t13.5 3.5t13 10q11 16 3 33t-27 19q-15 4 -35 2t-29 -17q-9 -16 0.5 -32.5t28.5 -16.5zM355 102q-111 11 -184.5 97t-68 197t88 189t192.5 78h130
q22 0 30.5 20.5t-7.5 35.5l-91 91q-14 14 -32 8t-22.5 -22.5t8.5 -32.5l34 -34h-50q-76 0 -145 -33.5t-116 -87.5t-70 -127t-12 -149t54 -141.5t110 -105.5q66 -41 144 -49q20 -2 30 13.5t3.5 33t-26.5 19.5z" />
    <glyph glyph-name="uniE66F" unicode="&#xe66f;" 
d="M661 56h-82l164 -94q13 -8 5 -21l-15 -27q-8 -13 -21 -5l-238 137q-5 4 -7 10h-11l30 60h170q113 0 193 78.5t80 189.5q0 86 -50 155.5t-131 97.5l28 55q94 -36 153.5 -120t59.5 -188q0 -89 -44 -164.5t-119.5 -119.5t-164.5 -44zM691 235h-239q-6 0 -10.5 4.5t-4.5 10.5
v30q0 6 4.5 10.5t10.5 4.5h239q6 0 10 -4.5t4 -10.5v-30q0 -6 -4 -10.5t-10 -4.5zM691 354h-239q-6 0 -10.5 4.5t-4.5 10.5v30q0 6 4.5 10.5t10.5 4.5h239q6 0 10 -4.5t4 -10.5v-30q0 -6 -4 -10.5t-10 -4.5zM691 474h-239q-6 0 -10.5 4t-4.5 11v29q0 7 4.5 11t10.5 4h239
q6 0 10 -4t4 -11v-29q0 -7 -4 -11t-10 -4zM368 653q-114 0 -194 -79t-80 -190q0 -100 67 -175.5t167 -89.5l-28 -57q-115 22 -190.5 112.5t-75.5 209.5q0 89 44 165t119.5 119.5t164.5 43.5h142l-164 95q-13 7 -6 21l16 26q7 13 21 6l238 -138q5 -3 7 -10h11l-30 -59h-229z
M362 474h-29q-7 0 -11 4t-4 11v29q0 7 4 11t11 4h29q7 0 11 -4t4 -11v-29q0 -7 -4 -11t-11 -4zM377 369q0 -6 -4 -10.5t-11 -4.5h-29q-7 0 -11 4.5t-4 10.5v30q0 6 4 10.5t11 4.5h29q7 0 11 -4.5t4 -10.5v-30zM318 250v30q0 6 4 10.5t11 4.5h29q7 0 11 -4.5t4 -10.5v-30
q0 -6 -4 -10.5t-11 -4.5h-29q-7 0 -11 4.5t-4 10.5z" />
    <glyph glyph-name="uniE670" unicode="&#xe670;" 
d="M221 566q37 0 63.5 19.5t38.5 53.5h553q16 0 26 10t10 26.5t-10 26.5t-26 10h-553q-11 32 -40 52t-62 20q-44 0 -76.5 -32.5t-32.5 -76t32.5 -76.5t76.5 -33zM220.5 712q16.5 0 26.5 -10t10 -26.5t-10 -26.5t-26.5 -10t-26.5 10t-10 26.5t10 26.5t26.5 10zM876 420h-262
q-11 33 -40 53t-62 20t-62 -20t-40 -53h-262q-16 0 -26 -10t-10 -26t10 -26t26 -10h262q11 -33 40 -53t62 -20t62 20t40 53h262q16 0 26 10t10 26t-10 26t-26 10zM512 348q-16 0 -26 10t-10 26t10 26t26 10t26 -10t10 -26t-10 -26t-26 -10zM803 202q-37 0 -63.5 -19.5
t-38.5 -53.5h-553q-16 0 -26 -10t-10 -26.5t10 -26.5t26 -10h553q11 -32 40 -52t62 -20q44 0 76.5 32.5t32.5 76t-32.5 76.5t-76.5 33zM803.5 56q-16.5 0 -26.5 10t-10 26.5t10 26.5t26.5 10t26.5 -10t10 -26.5t-10 -26.5t-26.5 -10z" />
    <glyph glyph-name="uniE671" unicode="&#xe671;" 
d="M512 896q-138 0 -256 -69t-187 -187t-69 -256t69 -256t187 -187t256 -69t256 69t187 187t69 256t-69 256t-187 187t-256 69zM512 -64q-187 0 -317.5 130.5t-130.5 317.5t130.5 317.5t317.5 130.5t317.5 -130.5t130.5 -317.5t-130.5 -317.5t-317.5 -130.5zM704 576
q0 82 -55 137t-137 55t-137 -55t-55 -137t55 -137t137 -55t137 55t55 137zM512 448q-53 0 -90.5 37.5t-37.5 90.5t37.5 90.5t90.5 37.5t90.5 -37.5t37.5 -90.5t-37.5 -90.5t-90.5 -37.5zM512 384q-134 0 -227 -75t-93 -181q0 -14 9 -23t23 -9t23 9t9 23q0 81 75 136.5
t181 55.5t181 -55.5t75 -136.5q0 -14 9 -23t23 -9t23 9t9 23q0 106 -93 181t-227 75z" />
    <glyph glyph-name="uniE672" unicode="&#xe672;" 
d="M653 429q53 34 84 89.5t31 121.5q0 106 -75 181t-181 75t-181 -75t-75 -181q0 -66 31 -121.5t84 -89.5q-135 -39 -221 -140t-86 -225q0 -49 23.5 -84t61.5 -55.5t98.5 -32.5t121.5 -16t143 -4q70 0 120.5 2.5t105.5 9t92 20t68.5 34t46.5 52.5t15 74q0 124 -86 225
t-221 140zM320 640q0 82 55 137t137 55t137 -55t55 -137t-55 -137t-137 -55t-137 55t-55 137zM512 -64q-87 0 -150 5t-119.5 18t-85.5 39.5t-29 65.5q0 134 112.5 227t271.5 93t271.5 -93t112.5 -227q0 -39 -29 -65.5t-85.5 -39.5t-119.5 -18t-150 -5z" />
    <glyph glyph-name="uniE673" unicode="&#xe673;" 
d="M384 543q-2 2 -6.5 6t-18.5 11.5t-29 10.5t-37.5 -0.5t-44.5 -16.5q-20 -13 -33 -31t-18 -34.5t-6.5 -31.5t-1.5 -24l1 -8q-6 -2 -16.5 -5t-37.5 -17.5t-47.5 -34.5t-37.5 -58t-17 -85q1 -34 11 -61.5t24 -44.5t33.5 -30t35.5 -19t33 -9.5t23 -4t10 -0.5h248v179h-119
l179 179l179 -179h-119v-179h241q3 0 9 0.5t22 3.5t31.5 8.5t35 17.5t34.5 28t27.5 42.5t16.5 58.5q3 49 -12 88.5t-35 60.5t-47 36t-38 18.5t-17 4.5q0 4 0.5 9.5t-0.5 23.5t-3.5 35.5t-8.5 41.5t-15.5 45.5t-25.5 44t-36.5 40t-50.5 30.5t-66 17q-141 16 -221 -107
q-20 -33 -29 -60z" />
    <glyph glyph-name="uniE674" unicode="&#xe674;" 
d="M853 794h-682q-43 0 -73 -30t-30 -73v-546q0 -42 30 -72t73 -30h224l93 -93q10 -10 24 -10t24 10l93 93h224q43 0 73 30t30 72v546q0 43 -30 73t-73 30zM324 384q-21 0 -36 15t-15 36t15 36t36 15t36 -15t15 -36t-15 -36t-36 -15zM529 384q-21 0 -36 15t-15 36t15 36
t36 15t36 -15t15 -36t-15 -36t-36 -15zM734 384q-21 0 -36 15t-15 36t15 36t36 15t36 -15t15 -36t-15 -36t-36 -15z" />
    <glyph glyph-name="uniE675" unicode="&#xe675;" 
d="M512 -60q-14 0 -24 10l-103 103q-10 10 -10 24t10 24t24.5 10t24.5 -10l78 -78l78 78q10 10 24 10h239q14 0 24 10t10 24v546q0 14 -10 24t-24 10h-682q-14 0 -24 -10t-10 -24v-546q0 -14 10 -24t24 -10h102q14 0 24 -10t10 -24t-10 -24t-24 -10h-102q-43 0 -73 30
t-30 72v546q0 43 30 73t73 30h682q43 0 73 -30t30 -73v-546q0 -42 -30 -72t-73 -30h-224l-93 -93q-10 -10 -24 -10zM324 384q-21 0 -36 15t-15 36t15 36t36 15t36 -15t15 -36t-15 -36t-36 -15zM529 384q-21 0 -36 15t-15 36t15 36t36 15t36 -15t15 -36t-15 -36t-36 -15z
M734 384q-21 0 -36 15t-15 36t15 36t36 15t36 -15t15 -36t-15 -36t-36 -15z" />
    <glyph glyph-name="uniE676" unicode="&#xe676;" 
d="M736 768q-102 0 -176 -70q-6 -5 -48 -48l-47 47q-74 71 -177 71q-106 0 -181 -75t-75 -181q0 -100 76 -182l317 -321q42 -41 87 -41t87 42l316 320l3 2q25 31 37.5 49.5t24.5 54t12 76.5q0 106 -75 181t-181 75z" />
    <glyph glyph-name="uniE677" unicode="&#xe677;" 
d="M512 -32q-45 0 -87 41l-319 323q-25 31 -37.5 49.5t-24.5 54t-12 76.5q0 106 75 181t181 75q81 0 147 -47q11 -7 13.5 -20t-5.5 -24t-21 -13.5t-24 5.5q-49 35 -110 35q-79 0 -135.5 -56.5t-56.5 -135.5q0 -43 13 -70t46 -69l316 -319q22 -22 41 -22q18 0 41 23l317 320
q58 62 58 137q0 79 -56.5 135.5t-135.5 56.5q-75 0 -130 -50l-134 -134q-9 -10 -22 -10t-22.5 9.5t-9.5 22.5t9 23l135 135q75 68 174 68q106 0 181 -75t75 -181q0 -100 -76 -182l-317 -320q-42 -42 -87 -42z" />
    <glyph glyph-name="uniE678" unicode="&#xe678;" 
d="M915 153l-14 21q-8 12 -30.5 50t-39 73t-30 80.5t-13.5 82.5q0 126 -48.5 201.5t-125.5 104.5v16q0 43 -30 73t-72 30t-72 -30t-30 -73v-16q-77 -29 -125.5 -104.5t-48.5 -201.5q0 -36 -13.5 -81.5t-30.5 -81t-38.5 -72.5t-30.5 -50.5t-14 -20.5q-9 -13 -5.5 -28
t16.5 -22q14 -8 38 -19.5t87.5 -35t123.5 -35.5q18 -54 56.5 -86.5t86.5 -32.5t86.5 32.5t56.5 85.5q60 13 123.5 36.5t87 34.5t38.5 19q13 7 16.5 22.5t-5.5 27.5zM478 782q0 14 10 24t24 10t24 -10t10 -24v-1q-12 1 -23 1h-22q-11 0 -23 -1v1zM512 -37q-36 0 -62 38
q34 -4 62 -4t62 4q-26 -38 -62 -38z" />
    <glyph glyph-name="uniE679" unicode="&#xe679;" 
d="M915 152q-5 7 -14 20.5t-30.5 50.5t-38.5 72.5t-30.5 81t-13.5 81.5q0 126 -48.5 202t-125.5 104v17q0 42 -30 72t-72 30t-72 -30t-30 -72v-18q-20 -14 -13 -37q4 -14 16.5 -20.5t26.5 -2.5q28 10 61 10h22q93 0 145 -67.5t52 -187.5q0 -130 117 -313q-178 -81 -325 -81
t-325 82q117 182 117 312q0 101 37 165q7 12 3.5 25.5t-16 20.5t-26 3.5t-20.5 -15.5q-46 -80 -46 -199q0 -36 -13.5 -81.5t-30.5 -81t-38.5 -72.5t-30.5 -50.5t-14 -20.5q-9 -12 -5.5 -27t16.5 -23q14 -7 38 -18.5t87.5 -35t123.5 -36.5q18 -53 56.5 -86t86.5 -33t86.5 33
t56.5 86q60 13 123.5 36t87 34.5t38.5 19.5q13 7 16.5 22t-5.5 28zM501 781q-3 0 -23 -2v2q0 14 10 24t24 10t24 -10t10 -24v-1q-12 1 -23 1h-22zM512 -38q-36 0 -62 37q34 -3 62 -3t62 3q-26 -37 -62 -37z" />
    <glyph glyph-name="uniE67A" unicode="&#xe67a;" 
d="M864 480q0 146 -103 249t-249 103t-249 -103t-103 -249q0 -137 92.5 -237.5t227.5 -112.5v-2v-64h-128q-13 0 -22.5 -9.5t-9.5 -22.5t9.5 -22.5t22.5 -9.5h128v-32q0 -13 9.5 -22.5t22.5 -9.5t22.5 9.5t9.5 22.5v32h128q13 0 22.5 9.5t9.5 22.5t-9.5 22.5t-22.5 9.5h-128
v64v2q135 12 227.5 112.5t92.5 237.5zM512 192q-119 0 -203.5 84.5t-84.5 203.5t84.5 203.5t203.5 84.5t203.5 -84.5t84.5 -203.5t-84.5 -203.5t-203.5 -84.5z" />
    <glyph glyph-name="uniE67B" unicode="&#xe67b;" 
d="M927 775l-1 4q-1 2 -4 6q0 1 -0.5 2.5t-1.5 1.5v1h-1q-1 1 -5 4l-5 3q-6 3 -13 3h-224q-13 0 -22.5 -9.5t-9.5 -22.5t9.5 -22.5t22.5 -9.5h139l-152 -135q-94 71 -211 71q-146 0 -249 -103t-103 -249t103 -249t249 -103t249 103t103 249q0 137 -94 238l158 139v-121
q0 -13 9.5 -22.5t22.5 -9.5t22.5 9.5t9.5 22.5v192q0 1 -1 7zM736 320q0 -119 -84.5 -203.5t-203.5 -84.5t-203.5 84.5t-84.5 203.5t84.5 203.5t203.5 84.5t203.5 -84.5t84.5 -203.5z" />
    <glyph glyph-name="uniE67C" unicode="&#xe67c;" 
d="M512 832q-185 0 -316.5 -131.5t-131.5 -316.5t131.5 -316.5t316.5 -131.5t316.5 131.5t131.5 316.5t-131.5 316.5t-316.5 131.5zM512 64q-20 0 -34 14t-14 34t14 34t34 14t34 -14t14 -34t-14 -34t-34 -14zM601 391q-19 -19 -28.5 -29t-19 -26t-9.5 -28v-54
q0 -13 -9.5 -22.5t-22.5 -9.5t-22.5 9.5t-9.5 22.5v54q0 25 13 50t25.5 39.5t36.5 38.5q18 17 26.5 26.5t17.5 23.5t9 24q0 40 -28 68.5t-68 28.5t-68 -27.5t-28 -67.5q0 -13 -9.5 -22.5t-22.5 -9.5t-22.5 9.5t-9.5 22.5q0 66 47 112.5t113 46.5t113 -47t47 -114
q0 -22 -12 -45.5t-24 -37t-35 -36.5z" />
    <glyph glyph-name="uniE67D" unicode="&#xe67d;" 
d="M464 112q0 -20 14 -34t34 -14t34 14t14 34t-14 34t-34 14t-34 -14t-14 -34zM512 -64q-185 0 -316.5 131.5t-131.5 316.5t131.5 316.5t316.5 131.5t316.5 -131.5t131.5 -316.5t-131.5 -316.5t-316.5 -131.5zM512 768q-104 0 -192.5 -51.5t-140 -140t-51.5 -192.5
t51.5 -192.5t140 -140t192.5 -51.5t192.5 51.5t140 140t51.5 192.5t-51.5 192.5t-140 140t-192.5 51.5zM512 222q-13 0 -22.5 9.5t-9.5 22.5v54q0 25 13 50t25.5 39.5t36.5 38.5q18 18 26.5 27t17.5 23t9 24q0 40 -28 68.5t-68 28.5t-68 -27.5t-28 -67.5q0 -13 -9.5 -22.5
t-22.5 -9.5t-22.5 9.5t-9.5 22.5q0 66 47 112.5t113 46.5t113 -47t47 -114q0 -22 -12 -45.5t-24 -37t-35 -36.5q-19 -19 -28.5 -29t-19 -26t-9.5 -28v-54q0 -13 -9.5 -22.5t-22.5 -9.5z" />
    <glyph glyph-name="uniE67E" unicode="&#xe67e;" 
d="M767 382l-15 18q14 104 -6 192t-52.5 137.5t-78.5 88t-65.5 48.5t-31.5 14l-9 4l-9 -4q-12 -4 -31.5 -14t-65.5 -48.5t-78.5 -88t-52.5 -137.5t-6 -192l-15 -18q-69 -85 -81.5 -102t-12.5 -27q0 -11 7 -57t29.5 -114.5t53.5 -93.5l12 -6h8q27 0 39 32q3 9 4 40
q6 133 46 138l25 3q-7 -13 -12 -29t-5.5 -45.5t9.5 -59.5t40.5 -69t79.5 -76l14 -10l15 9q22 15 43.5 34.5t43 47.5t33 58.5t13.5 67t-16 72.5l23 -3q40 -5 46 -138q1 -32 4 -40q12 -32 39 -32l14 2l7 5q31 24 53 92.5t29 114.5t7 57q0 10 -12.5 27t-81.5 102zM384 200l-2 7
h7l-2 -3h-1zM635 203l-2 4h3zM509 -31q-41 32 -64 64.5t-27.5 58.5t-3 42t7.5 29h175q7 -18 7.5 -37t-4 -35.5t-13 -32.5t-18.5 -29t-21.5 -25.5t-20.5 -20t-18 -14.5zM759 52v5q-1 23 -2 37t-5 39t-10 41.5t-18 34t-28 25.5l7 24h-388l7 -24q-16 -8 -28 -25.5t-18 -34
t-10 -41.5t-5 -39t-2 -37v-4q-19 34 -32.5 94.5t-17.5 99.5q13 18 82 103l28 35l-1 11q-7 45 -7.5 86t5.5 74.5t14.5 63.5t22 54.5t27 44.5t29.5 36t30 28.5t28.5 21.5t24 14.5t17.5 8.5q8 -3 17.5 -8.5t24 -14.5t28 -21.5t30 -28.5t30 -36t27 -44.5t22 -54.5t14.5 -63.5
t5.5 -74.5t-7.5 -86l-2 -11l29 -35q70 -86 82 -103q-4 -41 -17.5 -101.5t-32.5 -93.5zM509 690q-59 0 -101 -40t-42 -96t42 -95.5t101 -39.5t101 39.5t42 95.5t-42 96t-101 40zM509 470q-38 0 -65 24.5t-27 59.5t27 59.5t65 24.5t65 -24.5t27 -59.5t-27 -59.5t-65 -24.5z
" />
    <glyph glyph-name="uniE67F" unicode="&#xe67f;" 
d="M784 -94q-9 0 -16 5l-258 142l-258 -142q-18 -10 -35.5 2.5t-14.5 33.5l50 304l-209 215q-15 15 -8.5 34.5t26.5 23.5l166 28q14 2 25.5 -6t13.5 -22t-6 -25.5t-22 -13.5l-101 -18l176 -181q12 -13 9 -30l-41 -251l213 117q16 9 33 0l212 -118l-40 252q-3 17 9 29
l176 180l-241 37q-18 2 -26 19l-106 227l-106 -226q-6 -13 -19.5 -18t-26.5 1t-17.5 19.5t1.5 26.5l138 291q9 20 31 20q21 0 30 -20l129 -276l289 -44q20 -3 26.5 -23t-7.5 -35l-210 -214l49 -304q3 -21 -14 -34q-9 -6 -20 -6z" />
    <glyph glyph-name="uniE680" unicode="&#xe680;" 
d="M649 486h-274q-14 0 -24 10t-10 24.5t10 24.5t24 10h274q14 0 24 -10t10 -24.5t-10 -24.5t-24 -10zM584 350h-209q-14 0 -24 10t-10 24t10 24t24 10h209q14 0 24 -10t10 -24t-10 -24t-24 -10zM992 452q0 111 -64 205.5t-174 149.5t-239.5 55t-239.5 -55t-174 -149.5
t-64 -205.5q0 -93 48 -177t136 -143q12 -8 25.5 -5.5t21.5 14t5.5 25.5t-14.5 22q-73 50 -113.5 119t-40.5 145q0 93 55 171.5t149 124.5t205 46t205.5 -46t149.5 -124.5t55 -171t-55 -171.5t-149.5 -124.5t-205.5 -45.5q-1 0 -3 -0.5t-3 -0.5q-12 2 -23 -4t-15 -18
q-9 -27 -100 -79q18 63 4 85q-12 17 -32 17q-14 0 -24 -10t-10 -24q0 -10 4 -17q-6 -35 -35 -107q-9 -21 8 -37q10 -10 23 -10q8 0 14 3q154 69 200 134q128 2 236.5 57t171 148.5t62.5 203.5z" />
    <glyph glyph-name="uniE681" unicode="&#xe681;" 
d="M928 166h-128v128q0 15 -9 23.5t-23 8.5t-23 -8.5t-9 -23.5v-128h-128q-14 0 -23 -8.5t-9 -23t9 -23.5t23 -9h128v-128q0 -14 9 -23t23 -9t23 9t9 23v128h128q14 0 23 9t9 23.5t-9 23t-23 8.5zM659 -58q-9 0 0 0q-51 -6 -147 -6q-87 0 -150 5t-119.5 18t-85.5 39.5
t-29 65.5q0 134 112.5 227t271.5 93q87 0 173 -32h6q15 0 23.5 9t8.5 23q0 19 -25 32q-7 3 -23 9.5t-22 9.5q53 29 84 83.5t31 121.5q0 106 -75 181t-181 75t-181 -75t-75 -181q0 -66 31 -121.5t84 -89.5q-135 -39 -221 -140t-86 -225q0 -41 15.5 -72t46 -52t68.5 -34.5
t91.5 -20.5t106 -10t120.5 -3q96 0 141 6q14 0 23 9t9 23q4 10 -6 21t-20 11zM320 640q0 82 55 137t137 55t137 -55t55 -137t-55 -137t-137 -55t-137 55t-55 137z" />
    <glyph glyph-name="uniE682" unicode="&#xe682;" 
d="M828 265q0 -26 18.5 -45t44.5 -19t44.5 19t18.5 45v247q0 26 -18 44.5t-45 18.5q-26 0 -44.5 -18.5t-18.5 -44.5v-247zM603 721q0 12 9 21t22 9t22 -9t9 -21q0 -13 -9 -22t-22 -9t-22 9t-9 22zM363 721q0 12 9 21t22 9t22 -9t9 -21q0 -13 -9 -22t-22 -9t-22 9t-9 22z
M234 122q0 -21 14 -35t35 -14h56v-138q0 -26 18 -44.5t45 -18.5q25 0 44 19t19 44v138h97v-138q0 -26 18 -44.5t45 -18.5q26 0 44.5 19t18.5 44v138h56q20 0 34.5 14t14.5 35v451h-559v-451zM792 613q-6 63 -45.5 114t-101.5 80l51 74q7 9 -1 13q-7 4 -13 -3l-54 -77
q-59 21 -116 21q-58 0 -117 -21l-53 77q-7 8 -12 3q-8 -5 -2 -13l52 -74q-63 -30 -102.5 -80.5t-44.5 -113.5h559zM70 265q0 -26 18 -45t45 -19q25 0 44 19t19 45v247q0 26 -18.5 44.5t-44.5 18.5q-27 0 -45 -18.5t-18 -44.5v-247z" />
    <glyph glyph-name="uniE683" unicode="&#xe683;" 
d="M257 319h512q14 0 23 9.5t9 22.5t-9 22.5t-23 9.5h-512q-13 0 -22.5 -9.5t-9.5 -22.5t9.5 -22.5t22.5 -9.5zM257 127h512q14 0 23 9.5t9 22.5t-9 22.5t-23 9.5h-512q-13 0 -22.5 -9.5t-9.5 -22.5t9.5 -22.5t22.5 -9.5zM448 704h160q13 0 22.5 9.5t9.5 22.5t-9.5 22.5
t-22.5 9.5h-160q-13 0 -22.5 -9.5t-9.5 -22.5t9.5 -22.5t22.5 -9.5zM847 768h-47q-13 0 -22.5 -9.5t-9.5 -22.5t9.5 -22.5t22.5 -9.5h47q5 0 11 -9t6 -23v-96h-704v96q0 13 9 22.5t22 9.5h65q13 0 22.5 9.5t9.5 22.5t-9.5 22.5t-22.5 9.5h-65q-39 0 -67 -28t-28 -68v-640
q0 -40 28 -68t68 -28h640q40 0 68 28t28 68v640q0 40 -24 68t-57 28zM864 32q0 -13 -9.5 -22.5t-22.5 -9.5h-640q-13 0 -22.5 9.5t-9.5 22.5v480h704v-480zM704 672q13 0 22.5 9.5t9.5 22.5v96q0 13 -9.5 22.5t-22.5 9.5t-22.5 -9.5t-9.5 -22.5v-96q0 -13 9.5 -22.5
t22.5 -9.5zM352 672q13 0 22.5 9.5t9.5 22.5v96q0 13 -9.5 22.5t-22.5 9.5t-22.5 -9.5t-9.5 -22.5v-96q0 -13 9.5 -22.5t22.5 -9.5z" />
    <glyph glyph-name="uniE684" unicode="&#xe684;" 
d="M512 858q-130 0 -240 -54.5t-174 -149t-64 -205.5q0 -93 48.5 -177t137.5 -145l90 -55q-7 -41 -36 -124q-8 -21 9 -36q10 -9 23 -9q7 0 14 3q154 68 200 133q128 2 236 57.5t171 149t63 203.5q0 111 -64 205.5t-174 149t-240 54.5zM585 350h-209q-14 0 -24 10t-10 24
t10 24t24 10h209q14 0 24 -10t10 -24t-10 -24t-24 -10zM650 486h-274q-14 0 -24 10t-10 24.5t10 24.5t24 10h274q14 0 24 -10t10 -24.5t-10 -24.5t-24 -10z" />
    <glyph glyph-name="uniE685" unicode="&#xe685;" 
d="M888 598q-10 9 -23 8.5t-22 -10.5l-427 -454l-233 230q-10 9 -23 9t-22.5 -9.5t-9.5 -23t10 -22.5l256 -253h1q1 -1 7 -4q0 -1 1 -1.5t2 -1.5q6 -2 12 -2t12 3q1 0 2 1t2 1q5 3 7 5v0l449 479q9 9 9 22.5t-10 22.5z" />
    <glyph glyph-name="uniE686" unicode="&#xe686;" horiz-adv-x="1031" 
d="M640 640q0 106 -75 181t-181 75t-181 -75t-75 -181t75 -181t181 -75t181 75t75 181zM384 448q-82 0 -137 55t-55 137t55 137t137 55t137 -55t55 -137t-55 -137t-137 -55zM384 384q-159 0 -271.5 -93t-112.5 -227q0 -44 13 -76.5t40.5 -53t58.5 -33.5t79.5 -19t90 -8
t102.5 -2t102.5 2t90 8t79.5 19t58.5 33.5t40.5 53t13 76.5q0 134 -112.5 227t-271.5 93zM384 -64h-41q-30 -1 -58 -0.5t-53 1.5t-47.5 4.5t-41 9.5t-33.5 15.5t-25 22.5t-15.5 32t-5.5 43q0 106 93 181t227 75t227 -75t93 -181q0 -32 -8 -54.5t-31 -36.5t-39 -22t-59.5 -11
t-63.5 -3.5t-78 -0.5h-41zM896 576q0 82 -55 137t-137 55q-26 0 -32 -6q15 -23 26 -64h6q53 0 90.5 -38t37.5 -90.5t-37.5 -90t-90.5 -37.5q-42 0 -70 19q-7 -3 -21.5 -17.5t-23.5 -21.5q48 -38 115 -38q82 0 137 55t55 137zM704 384q-64 0 -122 -19q63 -21 103 -45h25
q107 0 181.5 -55.5t74.5 -136.5q0 -50 -36.5 -80.5t-97.5 -41.5q-11 -42 -38 -70q107 10 171.5 56.5t64.5 129.5q-4 110 -98 186t-228 76z" />
    <glyph glyph-name="uniE687" unicode="&#xe687;" 
d="M512 -64q-185 0 -316.5 131.5t-131.5 316.5t131.5 316.5t316.5 131.5t316.5 -131.5t131.5 -316.5t-131.5 -316.5t-316.5 -131.5zM512 768q-159 0 -271.5 -112.5t-112.5 -271.5t112.5 -271.5t271.5 -112.5t271.5 112.5t112.5 271.5t-112.5 271.5t-271.5 112.5z" />
    <glyph glyph-name="uniE688" unicode="&#xe688;" 
d="M512 830q-91 0 -173.5 -35.5t-142 -95t-95 -142t-35.5 -173.5t35.5 -173.5t95 -142t142 -95t173.5 -35.5t173.5 35.5t142 95t95 142t35.5 173.5t-35.5 173.5t-95 142t-142 95t-173.5 35.5zM727 458l-256 -259v-1q-2 -1 -7 -4q-1 -1 -2 -1.5t-2 -1.5q-6 -2 -12 -2t-12 2
q-1 1 -2 1.5t-1 1.5q-6 3 -7 4v1h-1l-126 129q-9 10 -9 23t9.5 22.5t23 9t22.5 -9.5l103 -106l234 236q9 9 22.5 9t22.5 -9t9.5 -22.5t-9.5 -22.5z" />
    <glyph glyph-name="uniE689" unicode="&#xe689;" 
d="M966 716h-328v-45h275q7 0 11.5 -4.5t4.5 -11.5v-417q0 -7 -4.5 -11.5t-11.5 -4.5h-803q-7 0 -11.5 4.5t-4.5 11.5v417q0 7 4.5 11.5t11.5 4.5h275v45h-328q-8 0 -13.5 -5.5t-5.5 -13.5v-501q0 -8 5.5 -13.5t13.5 -5.5h347l-74 -128h363l-74 128h347q8 0 13.5 5.5
t5.5 13.5v501q0 8 -5.5 13.5t-13.5 5.5zM511 550l93 99h-54q1 2 1 5v131q0 8 -5 13.5t-13 5.5h-43q-8 0 -13 -5.5t-5 -13.5v-131q0 -3 1 -5h-54z" />
    <glyph glyph-name="uniE68A" unicode="&#xe68a;" 
d="M831 404q11 11 11 25t-10.5 24.5t-25 10.5t-24.5 -10l-87 -88l49 -49zM546 748q0 14 -10 24t-24 10t-24 -10t-10 -24v-165l68 -68v233zM487 110q10 -10 24.5 -10t25.5 10l99 99l-49 49l-41 -40v81l-68 68v-149l-236 236q-11 10 -25.5 10t-24.5 -10.5t-10 -24.5t10 -25z
M737 183q7 -7 16.5 -7t16 6.5t6.5 16t-6 16.5l-483 483q-7 6 -16.5 6t-16 -6.5t-6.5 -16t7 -15.5zM808 54h-592q-14 0 -24 -10t-10 -24t10 -24t24 -10h592q14 0 24 10t10 24t-10 24t-24 10z" />
    <glyph glyph-name="uniE68B" unicode="&#xe68b;" 
d="M930 728h-686q-24 0 -41.5 -17.5t-17.5 -42.5v-685q0 -25 17.5 -42.5t41.5 -17.5h536l209 206v539q0 25 -17.5 42.5t-41.5 17.5zM930 154l-174 -171h-512v685h686v-514zM94 784h685v-24h60v24q0 25 -17.5 42.5t-42.5 17.5h-685q-25 0 -42.5 -17.5t-17.5 -42.5v-685
q0 -24 17.5 -41.5t42.5 -17.5h54v59h-54v685zM502 146q27 -1 52 12t40 37q11 17 13 31l42 224q19 2 43 -2h1h1q5 -1 12 -3t14 -6h1q42 -21 45 -73q12 24 5.5 57.5t-27.5 51.5q-18 15 -47.5 24.5t-49.5 11.5l-20 2l-44 -242q-22 20 -71 22q-40 1 -69.5 -19.5t-31.5 -51
t24.5 -53t66.5 -23.5z" />
    <glyph glyph-name="uniE68C" unicode="&#xe68c;" 
d="M722 752v-70q83 -52 131.5 -139t48.5 -189q0 -106 -52 -195.5t-142 -141.5t-195.5 -52t-195.5 52t-142 141.5t-52 195.5q0 102 48.5 189t131.5 139v70q-109 -58 -174.5 -164t-65.5 -234q0 -91 35.5 -174.5t96 -143.5t143.5 -95.5t174.5 -35.5t175 35.5t143.5 95.5
t95.5 143.5t35.5 174.5q0 128 -65.5 234t-174.5 164zM512.5 384q12.5 0 21.5 9t9 21v420q0 12 -9 21t-21.5 9t-21 -9t-8.5 -21v-420q0 -12 8.5 -21t21 -9z" />
    <glyph glyph-name="uniE68D" unicode="&#xe68d;" horiz-adv-x="1025" 
d="M993 737q-36 108 -97 108h-2q-28 -1 -154 -38q-84 -24 -137 -38.5t-145 -35.5t-181 -31.5t-175 -10.5q-43 0 -72.5 -51t-29.5 -128t29.5 -128t72.5 -51q29 0 57 -1l85 -340q8 -29 33.5 -49t55.5 -20h67q35 0 51.5 25.5t3.5 57.5l-132 310q160 -24 417 -99
q126 -37 154 -38h2q61 0 97 108q31 94 31 225t-31 225zM819 512q0 39 4 77q19 -2 33 -24.5t14 -52.5t-14 -52.5t-33 -24.5q-4 38 -4 77zM51 512q0 55 17 91.5t34 36.5q83 0 173 10q-19 -60 -19 -138t19 -138q-90 10 -173 10q-17 0 -34 36.5t-17 91.5zM408 -14q3 -7 1 -9.5
t-9 -2.5h-67q-12 0 -24 9.5t-15 21.5l-81 323q26 -2 51 -5zM332 366q-25 57 -25 146q0 90 25 146q164 24 423 100l60 18q-9 -17 -16 -39q-31 -94 -31 -225t31 -225q7 -22 16 -39l-60 18q-260 76 -423 100zM944 303q-9 -27 -19 -44t-17 -23t-12 -6t-12 6t-17 23t-19 44
q-12 36 -19 82q39 4 65 39q28 37 28 88t-28 88q-26 35 -65 39q7 46 19 82q9 27 19 44t17 23t12 6t12 -6t17 -23t19 -44q29 -86 29 -209t-29 -209z" />
    <glyph glyph-name="uniE68E" unicode="&#xe68e;" 
d="M547 231q-78 0 -133 55q-8 7 -8 17.5t7.5 18t18 7.5t18.5 -7q40 -40 97 -40t97 40l186 186q40 40 40 97t-40 97t-97 40t-97 -40l-157 -157q-8 -7 -18.5 -7t-18 7.5t-7.5 18t8 17.5l157 157q55 56 133 56t133 -55.5t55 -133.5t-55 -133l-186 -186q-55 -55 -133 -55z
M240 -77q-78 0 -133.5 55.5t-55.5 133.5t55 133l187 186q55 55 133 55t133 -55q8 -7 8 -18t-7.5 -18t-18.5 -7t-18 7q-40 40 -97 40t-97 -40l-186 -186q-41 -40 -41 -97t40.5 -97.5t97.5 -40.5t97 41l157 157q7 7 18 7t18.5 -7.5t7.5 -18t-8 -17.5l-157 -158
q-55 -55 -133 -55z" />
    <glyph glyph-name="uniE68F" unicode="&#xe68f;" 
d="M279 324l-123 -247q-7 -22 6.5 -36t33.5 -4l248 122q18 4 29 15l440 440q17 16 17 39.5t-17 40.5l-100 100q-16 16 -39.5 16t-40.5 -16l-440 -440q-11 -11 -14 -30zM753 734q8 8 20 8t20 -8l60 -60q8 -9 8 -20.5t-8 -19.5l-60 -60l-98 101zM652 633l101 -99l-320 -320
q-62 61 -100 100zM383 183l-153 -92q-10 -5 -17 2.5t-2 17.5l92 153zM902 497v-455q0 -23 -19 -40.5t-43 -17.5h-679q-23 0 -40 17t-17 40v679q0 24 17.5 43t40.5 19h455v57h-455q-47 0 -80.5 -36t-33.5 -83v-679q0 -47 33 -80t80 -33h679q47 0 83 33.5t36 80.5v455h-57z
" />
    <glyph glyph-name="uniE690" unicode="&#xe690;" 
d="M526 -28q-31 0 -69 37l-182 183h-83q-40 0 -68 28t-28 68v192q0 40 28 68t68 28h83l182 183q37 37 69 37q20 0 35 -15t15 -45v-704q0 -31 -15 -45.5t-35 -14.5zM688 166q-11 0 -19 6q-11 7 -13 20.5t6 23.5l12 18q22 29 32 45t20 45t10 60q0 33 -9 60.5t-18.5 42.5
t-29.5 42q-10 13 -17 23q-8 10 -6 23.5t13 21t24 5.5t21 -13q4 -7 16 -21q23 -31 34.5 -49.5t23.5 -55.5t12 -79q0 -41 -13 -79t-25 -57.5t-36 -51.5l-12 -17q-10 -13 -26 -13zM796 57q-12 0 -21 8q-10 9 -10.5 22t7.5 23q58 66 91 130t33 144t-33 144t-91 130
q-8 10 -7.5 23t10.5 22t23.5 8t22.5 -11q63 -73 101 -147.5t38 -168.5t-38 -168.5t-101 -147.5q-10 -11 -25 -11z" />
    <glyph glyph-name="uniE691" unicode="&#xe691;" 
d="M512 -64q-185 0 -316.5 131.5t-131.5 316.5t131.5 316.5t316.5 131.5t316.5 -131.5t131.5 -316.5t-131.5 -316.5t-316.5 -131.5zM512 768q-104 0 -192.5 -51.5t-140 -140t-51.5 -192.5t51.5 -192.5t140 -140t192.5 -51.5t192.5 51.5t140 140t51.5 192.5t-51.5 192.5
t-140 140t-192.5 51.5zM727 503q-9 9 -22.5 9t-22.5 -9l-234 -236l-103 106q-9 9 -22.5 9.5t-23 -9t-9.5 -22.5t9 -23l126 -129h1v-1q1 -1 7 -4q0 -1 1 -1.5t2 -1.5q6 -2 12 -2t12 2q1 1 2 1.5t2 1.5q5 3 7 4v1l256 259q10 9 9.5 22.5t-9.5 22.5z" />
    <glyph glyph-name="uniE692" unicode="&#xe692;" 
d="M609 224q-38 0 -69 4q-13 1 -21 11.5t-6.5 23.5t11.5 21.5t24 6.5q69 -7 138.5 3t84.5 40q5 12 17.5 16.5t24.5 -1t16.5 -18t-1.5 -24.5q-40 -83 -219 -83zM896 256q-13 0 -22.5 9.5t-9.5 22.5v110l-43 16q-21 7 -21 30q0 119 -84.5 203.5t-203.5 84.5t-203.5 -84.5
t-84.5 -203.5q0 -17 -13 -26l-19 -13v-117q0 -13 -9.5 -22.5t-22.5 -9.5t-22.5 9.5t-9.5 22.5v133q0 16 13 26l19 14q7 140 109 237.5t243 97.5q139 0 240.5 -95.5t110.5 -234.5l44 -15q21 -7 21 -30v-133q0 -13 -9.5 -22.5t-22.5 -9.5zM640 112v10q48 37 64 73
q-19 -3 -88 -3q-67 0 -76 1q-26 3 -43 25t-14 49q3 26 24 42.5t47 13.5q54 -5 105 -0.5t76 14.5q1 22 1 84q0 102 -58 160t-159 61h-19q-100 -2 -156.5 -61t-56.5 -161q0 -35 0.5 -57.5t6 -61.5t15 -67t29 -59.5t46.5 -52.5v-10q-100 -15 -163 -53t-63 -89q0 -13 9.5 -23.5
t22.5 -10.5h628q14 0 27 10.5t13 23.5q0 51 -60 89t-158 53z" />
    </font>
</defs>
</svg>
